<?xml version="1.0" encoding="UTF-8"?>
<svg width="20px" height="20px" viewBox="0 0 20 20" version="1.1" xmlns="http://www.w3.org/2000/svg" xmlns:xlink="http://www.w3.org/1999/xlink">
    <!-- Generator: Sketch 49.2 (51160) - http://www.bohemiancoding.com/sketch -->
    <title>az-icon-telegram</title>
    <desc>Created with Sketch.</desc>
    <defs></defs>
    <g id="注册登录" stroke="none" stroke-width="1" fill="none" fill-rule="evenodd" fill-opacity="0.5">
        <g id="5-3-我的账号-找回登录密码" transform="translate(-1301.000000, -741.000000)" fill="#FFFFFF" fill-rule="nonzero">
            <g id="Group-28" transform="translate(0.000000, 636.000000)">
                <g id="Group-19" transform="translate(361.000000, 30.000000)">
                    <g id="Group-20" transform="translate(940.000000, 40.000000)">
                        <path d="M13.2700893,49.5870536 L14.9107143,41.8526786 C14.9776786,41.5252976 14.9386161,41.2909226 14.7935268,41.1495536 C14.6484375,41.0081845 14.4568452,40.9821429 14.21875,41.0714286 L4.57589285,44.7879464 C4.36011904,44.8697917 4.21316964,44.9627976 4.13504465,45.0669643 C4.05691966,45.1711309 4.04761906,45.2697173 4.10714285,45.3627232 C4.16666664,45.4557292 4.28571426,45.5282738 4.46428572,45.5803571 L6.93080357,46.3504464 L12.65625,42.7455357 C12.8125,42.6413691 12.9315476,42.6190476 13.0133929,42.6785714 C13.0654762,42.7157738 13.0505952,42.7715774 12.96875,42.8459821 L8.33705357,47.03125 L8.15848215,49.5758929 C8.3296131,49.5758929 8.49702381,49.4940476 8.66071428,49.3303571 L9.86607143,48.1696429 L12.3660714,50.0111607 C12.8422619,50.2790179 13.1436012,50.1376488 13.2700893,49.5870536 Z M20,45 C20,46.3541667 19.7358631,47.6488095 19.2075893,48.8839286 C18.6793155,50.1190476 17.96875,51.1830357 17.0758929,52.0758929 C16.1830357,52.96875 15.1190476,53.6793155 13.8839286,54.2075893 C12.6488095,54.7358631 11.3541667,55 10,55 C8.64583333,55 7.35119048,54.7358631 6.11607143,54.2075893 C4.88095238,53.6793155 3.81696428,52.96875 2.92410715,52.0758929 C2.03125001,51.1830357 1.32068454,50.1190476 0.792410723,48.8839286 C0.264136908,47.6488095 -3.70074342e-16,46.3541667 0,45 C3.70074342e-16,43.6458333 0.264136908,42.3511905 0.792410723,41.1160714 C1.32068454,39.8809524 2.03125001,38.8169643 2.92410715,37.9241071 C3.81696428,37.03125 4.88095238,36.3206845 6.11607143,35.7924107 C7.35119048,35.2641369 8.64583333,35 10,35 C11.3541667,35 12.6488095,35.2641369 13.8839286,35.7924107 C15.1190476,36.3206845 16.1830357,37.03125 17.0758929,37.9241071 C17.96875,38.8169643 18.6793155,39.8809524 19.2075893,41.1160714 C19.7358631,42.3511905 20,43.6458333 20,45 Z" id="az-icon-telegram"></path>
                    </g>
                </g>
            </g>
        </g>
    </g>
</svg>