<?xml version="1.0" encoding="UTF-8"?>
<svg width="14px" height="18px" viewBox="0 0 14 18" version="1.1" xmlns="http://www.w3.org/2000/svg" xmlns:xlink="http://www.w3.org/1999/xlink">
    <!-- Generator: Sketch 49.2 (51160) - http://www.bohemiancoding.com/sketch -->
    <title>az-icon-apple</title>
    <desc>Created with Sketch.</desc>
    <defs></defs>
    <g id="注册登录" stroke="none" stroke-width="1" fill="none" fill-rule="evenodd" fill-opacity="0.5">
        <g id="5-3-我的账号-找回登录密码" transform="translate(-1461.000000, -707.000000)" fill="#FFFFFF" fill-rule="nonzero">
            <g id="Group-28" transform="translate(0.000000, 636.000000)">
                <g id="Group-19" transform="translate(361.000000, 30.000000)">
                    <g id="Group-17" transform="translate(1100.000000, 40.000000)">
                        <path d="M14,14.1931782 C13.9784352,14.2614541 13.6409465,15.493834 12.8117808,16.7614897 C12.0936738,17.8550419 11.3507672,18.9576975 10.1787216,18.9770424 C9.02500606,18.9986631 8.65624839,18.2567317 7.33971876,18.2567317 C6.02534564,18.2567317 5.61238017,18.9576976 4.5222807,18.9986631 C3.39552113,19.0464562 2.52753887,17.803835 1.80835358,16.7159724 C0.334401087,14.4867646 -0.798827917,10.3993145 0.721488825,7.66031327 C1.47086481,6.28910577 2.81542862,5.41858815 4.27967696,5.39355366 C5.38379352,5.37193296 6.43399813,6.17645055 7.1046627,6.17645055 C7.79365731,6.17645055 9.06382264,5.20351909 10.4040735,5.34917433 C10.9647577,5.37420882 12.5346734,5.59382961 13.5460615,7.12889924 C13.46735,7.18579582 11.6677694,8.29641699 11.688256,10.5586249 C11.7152119,13.2885227 13.9762788,14.1840748 14,14.1931782 M9.52746534,3.88579438 C10.1312791,3.1142768 10.5291492,2.05372462 10.4245601,1 C9.561969,1.03527588 8.50960791,1.59968992 7.88530761,2.3677937 C7.33217109,3.03689744 6.84588538,4.1145186 6.98174347,5.15572597 C7.94029779,5.21603634 8.92580807,4.6300016 9.5263871,3.88579438" id="az-icon-apple"></path>
                    </g>
                </g>
            </g>
        </g>
    </g>
</svg>