<?xml version="1.0" encoding="UTF-8"?>
<svg width="40px" height="40px" viewBox="0 0 40 40" version="1.1" xmlns="http://www.w3.org/2000/svg" xmlns:xlink="http://www.w3.org/1999/xlink">
    <!-- Generator: Sketch 49.2 (51160) - http://www.bohemiancoding.com/sketch -->
    <title>az-icon-warning</title>
    <desc>Created with Sketch.</desc>
    <defs></defs>
    <g id="注册登录" stroke="none" stroke-width="1" fill="none" fill-rule="evenodd">
        <g id="4-登录后未绑定谷歌验证" transform="translate(-940.000000, -857.000000)" fill="#C9933E" fill-rule="nonzero">
            <g id="Group-11" transform="translate(740.000000, 771.000000)">
                <path d="M220.000137,86 C208.954262,86 200,94.9542162 200,106.000091 C200,117.045738 208.954216,126 220.000137,126 C231.045738,126 240,117.045784 240,106.000091 C240,94.9542619 231.045738,86 220.000137,86 Z M220.000503,116 C219.080154,116 218.333333,115.25339 218.333333,114.333265 C218.333333,113.41346 219.080154,112.666667 220.000503,112.666667 C220.920943,112.666667 221.666667,113.41346 221.666667,114.333265 C221.666667,115.253435 220.920897,116 220.000503,116 Z M221.666667,107.76543 C221.666667,108.631511 220.920943,109.333333 220.000503,109.333333 C219.080154,109.333333 218.333333,108.631511 218.333333,107.76543 L218.333333,97.5680757 C218.333333,96.7017793 219.080154,96 220.000503,96 C220.920943,96 221.666667,96.7018223 221.666667,97.5680757 L221.666667,107.76543 Z" id="az-icon-warning"></path>
            </g>
        </g>
    </g>
</svg>