<?xml version="1.0" encoding="UTF-8"?>
<svg width="76px" height="80px" viewBox="0 0 76 80" version="1.1" xmlns="http://www.w3.org/2000/svg" xmlns:xlink="http://www.w3.org/1999/xlink">
    <!-- Generator: Sketch 49.2 (51160) - http://www.bohemiancoding.com/sketch -->
    <title>az-icon-phone</title>
    <desc>Created with Sketch.</desc>
    <defs></defs>
    <g id="注册登录" stroke="none" stroke-width="1" fill="none" fill-rule="evenodd">
        <g id="5-2-忘记密码-手机验证码确认" transform="translate(-922.000000, -336.000000)" fill="#C9933E" fill-rule="nonzero">
            <g id="Group-11" transform="translate(740.000000, 250.000000)">
                <path d="M208.888487,99.3333333 L212.861965,99.3333333 C217.069849,99.3333333 220.481013,102.744497 220.481013,106.952381 L220.481013,122.190476 C220.481013,126.39836 217.069849,129.809524 212.861965,129.809524 L189.619048,129.809524 C185.411164,129.809524 182,126.39836 182,122.190476 L182,106.952381 C182,102.744497 185.411164,99.3333333 189.619048,99.3333333 L204.126582,99.3333333 L204.126582,93.6190476 C204.126582,89.4111638 207.537746,86 211.74563,86 L250.380952,86 C254.588836,86 258,89.4111638 258,93.6190476 L258,158.380952 C258,162.588836 254.588836,166 250.380952,166 L211.74563,166 C207.537746,166 204.126582,162.588836 204.126582,158.380952 L204.126582,130 L208.888487,130 L208.888487,142.190476 L253.238095,142.190476 L253.238095,93.6190476 C253.238095,92.0410912 251.958909,90.7619048 250.380952,90.7619048 L211.74563,90.7619048 C210.167673,90.7619048 208.888487,92.0410912 208.888487,93.6190476 L208.888487,99.3333333 Z M253.238095,146.952381 L208.888487,146.952381 L208.888487,158.380952 C208.888487,159.958909 210.167673,161.238095 211.74563,161.238095 L250.380952,161.238095 C251.958909,161.238095 253.238095,159.958909 253.238095,158.380952 L253.238095,146.952381 Z M223.82399,151.714286 L236.378541,151.714286 C237.693505,151.714286 238.759494,152.780274 238.759494,154.095238 C238.759494,155.410202 237.693505,156.47619 236.378541,156.47619 L223.82399,156.47619 C222.509027,156.47619 221.443038,155.410202 221.443038,154.095238 C221.443038,152.780274 222.509027,151.714286 223.82399,151.714286 Z M189.619048,104.095238 C188.041091,104.095238 186.761905,105.374425 186.761905,106.952381 L186.761905,122.190476 C186.761905,123.768433 188.041091,125.047619 189.619048,125.047619 L212.861965,125.047619 C214.439921,125.047619 215.719108,123.768433 215.719108,122.190476 L215.719108,106.952381 C215.719108,105.374425 214.439921,104.095238 212.861965,104.095238 L189.619048,104.095238 Z M201.240506,112.558326 L207.517353,107.897885 C208.573122,107.113996 210.064459,107.334399 210.848348,108.390168 C211.632236,109.445937 211.411834,110.937274 210.356065,111.721163 L202.659862,117.435448 C201.817078,118.0612 200.663935,118.0612 199.82115,117.435448 L192.124948,111.721163 C191.069179,110.937274 190.848776,109.445937 191.632665,108.390168 C192.416554,107.334399 193.907891,107.113996 194.96366,107.897885 L201.240506,112.558326 Z M222.405063,110.761905 L227.21519,110.761905 L227.21519,118.380952 L222.405063,118.380952 L222.405063,110.761905 Z M229.139241,110.761905 L233.949367,110.761905 L233.949367,118.380952 L229.139241,118.380952 L229.139241,110.761905 Z M235.873418,110.761905 L240.683544,110.761905 L240.683544,118.380952 L235.873418,118.380952 L235.873418,110.761905 Z M242.607595,110.761905 L247.417722,110.761905 L247.417722,118.380952 L242.607595,118.380952 L242.607595,110.761905 Z" id="az-icon-phone"></path>
            </g>
        </g>
    </g>
</svg>