<?xml version="1.0" encoding="UTF-8"?>
<svg width="14px" height="14px" viewBox="0 0 14 14" version="1.1" xmlns="http://www.w3.org/2000/svg" xmlns:xlink="http://www.w3.org/1999/xlink">
    <!-- Generator: Sketch 49.2 (51160) - http://www.bohemiancoding.com/sketch -->
    <title>az-icon-close</title>
    <desc>Created with Sketch.</desc>
    <defs></defs>
    <g id="注册登录" stroke="none" stroke-width="1" fill="none" fill-rule="evenodd">
        <g id="4-登录后未绑定谷歌验证" transform="translate(-1146.000000, -792.000000)" fill="#888888">
            <g id="Group-11" transform="translate(740.000000, 771.000000)">
                <g id="导航">
                    <path d="M413,26.6561802 L418.380787,21.2753936 C418.74883,20.9073498 419.345426,20.9072284 419.719099,21.2809012 C420.090184,21.6519867 420.085084,22.2587354 419.724606,22.6192134 L414.34382,28 L419.724606,33.3807866 C420.09265,33.7488305 420.092772,34.3454261 419.719099,34.7190988 C419.348013,35.0901844 418.741265,35.0850844 418.380787,34.7246064 L413,29.3438198 L407.619213,34.7246064 C407.25117,35.0926502 406.654574,35.0927716 406.280901,34.7190988 C405.909816,34.3480133 405.914916,33.7412646 406.275394,33.3807866 L411.65618,28 L406.275394,22.6192134 C405.90735,22.2511695 405.907228,21.6545739 406.280901,21.2809012 C406.651987,20.9098156 407.258735,20.9149156 407.619213,21.2753936 L413,26.6561802 Z" id="az-icon-close"></path>
                </g>
            </g>
        </g>
    </g>
</svg>