<?xml version="1.0" encoding="UTF-8"?>
<svg width="75px" height="80px" viewBox="0 0 75 80" version="1.1" xmlns="http://www.w3.org/2000/svg" xmlns:xlink="http://www.w3.org/1999/xlink">
    <!-- Generator: Sketch 49.2 (51160) - http://www.bohemiancoding.com/sketch -->
    <title>az-icon-google</title>
    <desc>Created with Sketch.</desc>
    <defs></defs>
    <g id="注册登录" stroke="none" stroke-width="1" fill="none" fill-rule="evenodd">
        <g id="1-4-登录-已有二次验证-谷歌二次验证" transform="translate(-923.000000, -346.000000)" fill="#C9933E" fill-rule="nonzero">
            <g id="Group-11" transform="translate(740.000000, 260.000000)">
                <path d="M205.04698,95.588597 C209.301829,95.9814648 213.273657,97.6682093 216.451608,100.39479 L213.161378,104.178736 C210.416666,101.82386 206.879882,100.5 203.119847,100.5 C194.772299,100.5 188.033557,107.007878 188.033557,115 C188.033557,122.992122 194.772299,129.5 203.119847,129.5 C210.577252,129.5 216.750669,124.306058 217.982477,117.5 L203.112234,117.5 L203.112234,112.5 L220.722915,112.5 C222.112893,112.5 223.239693,113.619288 223.239693,115 C223.239693,125.153804 215.24225,133.472012 205.04698,134.411639 L205.04698,141 L252.966443,141 L252.966443,94 C252.966443,92.3431458 251.614283,91 249.946309,91 L208.067114,91 C206.39914,91 205.04698,92.3431458 205.04698,94 L205.04698,95.588597 Z M200.013423,95.7311583 L200.013423,94 C200.013423,89.581722 203.619183,86 208.067114,86 L249.946309,86 C254.39424,86 258,89.581722 258,94 L258,158 C258,162.418278 254.39424,166 249.946309,166 L208.067114,166 C203.619183,166 200.013423,162.418278 200.013423,158 L200.013423,134.268842 C190.387436,132.822177 183,124.758881 183,115 C183,105.241119 190.387436,97.1778227 200.013423,95.7311583 Z M252.966443,146 L205.04698,146 L205.04698,158 C205.04698,159.656854 206.39914,161 208.067114,161 L249.946309,161 C251.614283,161 252.966443,159.656854 252.966443,158 L252.966443,146 Z M220.722915,102 L225.900288,102 L225.900288,110 L220.722915,110 L220.722915,102 Z M227.971237,102 L233.14861,102 L233.14861,110 L227.971237,110 L227.971237,102 Z M235.219559,102 L240.396932,102 L240.396932,110 L235.219559,110 L235.219559,102 Z M242.467881,102 L247.645254,102 L247.645254,110 L242.467881,110 L242.467881,102 Z M221.151965,151 L234.790508,151 C236.17122,151 237.290508,152.119288 237.290508,153.5 C237.290508,154.880712 236.17122,156 234.790508,156 L221.151965,156 C219.771254,156 218.651965,154.880712 218.651965,153.5 C218.651965,152.119288 219.771254,151 221.151965,151 Z" id="az-icon-google"></path>
            </g>
        </g>
    </g>
</svg>