<?xml version="1.0" encoding="UTF-8"?>
<svg width="20px" height="20px" viewBox="0 0 20 20" version="1.1" xmlns="http://www.w3.org/2000/svg" xmlns:xlink="http://www.w3.org/1999/xlink">
    <!-- Generator: Sketch 49.2 (51160) - http://www.bohemiancoding.com/sketch -->
    <title>az-icon-weibo</title>
    <desc>Created with Sketch.</desc>
    <defs></defs>
    <g id="注册登录" stroke="none" stroke-width="1" fill="none" fill-rule="evenodd" fill-opacity="0.5">
        <g id="5-3-我的账号-找回登录密码" transform="translate(-1301.000000, -813.000000)" fill="#FFFFFF" fill-rule="nonzero">
            <g id="Group-28" transform="translate(0.000000, 636.000000)">
                <g id="Group-19" transform="translate(361.000000, 30.000000)">
                    <g id="Group-20" transform="translate(940.000000, 40.000000)">
                        <g id="weibo" transform="translate(0.000000, 107.000000)">
                            <path d="M10,0 C4.47767857,0 0,4.47767857 0,10 C0,15.5223214 4.47767857,20 10,20 C15.5223214,20 20,15.5223214 20,10 C20,4.47767857 15.5223214,0 10,0 Z M8.99330357,15.2008929 C5.56696429,15.2008929 2.79017857,13.4107143 2.79017857,11.203125 C2.79017857,8.99553571 6.95089286,5.50892857 8.54017857,5.50892857 C9.20758929,5.50892857 10.5178571,6.00669643 9.60044643,7.58035714 C9.53571429,7.68973214 11.6674107,6.66517857 12.8303571,7.33928571 C13.9955357,8.01339286 12.8303571,9.09598214 12.8303571,9.21651786 C12.8303571,9.33705357 15.1696429,9.33705357 15.1696429,11.2008929 C15.171875,13.4107143 12.4196429,15.2008929 8.99330357,15.2008929 Z M13.8683036,7.02678571 C13.4821429,6.56919643 12.7946429,6.67633929 12.7946429,6.67633929 C12.59375,6.67857143 12.4285714,6.54017857 12.3995536,6.34821429 C12.3973214,6.36830357 12.3950893,6.38839286 12.3950893,6.40848214 L12.3950893,6.29017857 C12.3950893,6.31026786 12.3973214,6.33035714 12.3995536,6.34821429 C12.4285714,6.15178571 12.5915179,5.98214286 12.7901786,5.95535714 C12.7901786,5.95535714 13.6272321,5.72767857 14.3504464,6.37723214 C15.0736607,7.02678571 14.7767857,8.10267857 14.7767857,8.10267857 C14.7455357,8.32142857 14.53125,8.49776786 14.3102679,8.49776786 L14.265625,8.49776786 C14.0446429,8.49776786 13.9151786,8.32589286 13.9754464,8.11383929 C13.9799107,8.11160714 14.2544643,7.484375 13.8683036,7.02678571 Z M16.6116071,8.40625 C16.5825893,8.71205357 16.3169643,8.96428571 16.0133929,8.99776786 C16.0357143,9 16.0580357,9.00223214 16.0825893,9.00223214 L15.9441964,9.00223214 C15.96875,9.00223214 15.9910714,9 16.0133929,8.99776786 C15.71875,8.96428571 15.5223214,8.71205357 15.5647321,8.40848214 C15.5647321,8.40848214 15.890625,7.14732143 15.0959821,6.00892857 C14.3013393,4.86830357 12.5915179,5.06473214 12.5915179,5.06473214 C12.2834821,5.06473214 12.0290179,4.84151786 11.9955357,4.54241071 C11.9933036,4.56473214 11.9910714,4.58705357 11.9910714,4.609375 L11.9910714,4.47767857 C11.9910714,4.5 11.9933036,4.52232143 11.9955357,4.54464286 C12.0290179,4.24330357 12.2834821,4.00892857 12.5915179,4.00669643 C12.5915179,4.00669643 14.3705357,3.828125 15.6986607,5.078125 C17.0267857,6.328125 16.6116071,8.40625 16.6116071,8.40625 Z M8.75446429,9.36160714 C6.56473214,9.66964286 4.953125,11.0714286 5.15178571,12.4910714 C5.35044643,13.9129464 7.28794643,14.8147321 9.47767857,14.5066964 C11.6674107,14.1986607 13.2790179,12.796875 13.0803571,11.3772321 C12.8816964,9.95758929 10.9441964,9.05357143 8.75446429,9.36160714 Z M9.08928571,14.0111607 C7.78794643,14.2633929 6.56026786,13.5915179 6.35044643,12.5066964 C6.140625,11.4241071 7.02455357,10.3392857 8.32589286,10.0870536 C9.62723214,9.83482143 10.8549107,10.5066964 11.0647321,11.5915179 C11.2745536,12.6741071 10.390625,13.7566964 9.08928571,14.0111607 Z M7.0706085,12.5927246 C7.16124999,12.7871702 7.38345338,12.9022943 7.65350627,12.8947254 C7.92355916,12.8871565 8.20042792,12.7580445 8.37980566,12.556031 C8.55918339,12.3540174 8.61381426,12.1097975 8.52311674,11.915378 C8.43247525,11.7209325 8.21027186,11.6058083 7.94021898,11.6133773 C7.67016609,11.6209462 7.39329732,11.7500581 7.21391959,11.9520717 C7.03454185,12.1540852 6.97991099,12.3983052 7.0706085,12.5927246 Z M8.39508929,11.203125 C8.39508929,11.4237923 8.57397551,11.6026786 8.79464286,11.6026786 C9.0153102,11.6026786 9.19419643,11.4237923 9.19419643,11.203125 C9.19419643,10.9824577 9.0153102,10.8035714 8.79464286,10.8035714 C8.57397551,10.8035714 8.39508929,10.9824577 8.39508929,11.203125 Z" id="az-icon-weibo"></path>
                        </g>
                    </g>
                </g>
            </g>
        </g>
    </g>
</svg>