<?xml version="1.0" encoding="UTF-8"?>
<svg width="12px" height="12px" viewBox="0 0 12 12" version="1.1" xmlns="http://www.w3.org/2000/svg" xmlns:xlink="http://www.w3.org/1999/xlink">
    <!-- Generator: Sketch 49.3 (51167) - http://www.bohemiancoding.com/sketch -->
    <title>az-icon-transaction</title>
    <desc>Created with Sketch.</desc>
    <defs></defs>
    <g id="01-Basic" stroke="none" stroke-width="1" fill="none" fill-rule="evenodd">
        <g id="Icon" transform="translate(-405.000000, -213.000000)" fill="rgba(255,255,255,0.50)">
            <path d="M411,225 C407.686292,225 405,222.313708 405,219 C405,215.686292 407.686292,213 411,213 C414.313708,213 417,215.686292 417,219 C417,222.313708 414.313708,225 411,225 Z M412.022894,216.698656 L412.172301,216.818182 L408.272727,216.818182 C407.971481,216.818182 407.727273,217.06239 407.727273,217.363636 C407.727273,217.664883 407.971481,217.909091 408.272727,217.909091 L413.727273,217.909091 C414.242879,217.909091 414.470636,217.259804 414.068015,216.937708 L412.704379,215.846799 C412.469145,215.658612 412.125895,215.696751 411.937708,215.931985 C411.749521,216.167218 411.78766,216.510469 412.022894,216.698656 Z M409.828777,221.181798 L413.728351,221.181798 C414.029597,221.181798 414.273805,220.93759 414.273805,220.636344 C414.273805,220.335097 414.029597,220.090889 413.728351,220.090889 L408.273805,220.090889 C407.758199,220.090889 407.530442,220.740175 407.933063,221.062272 L409.296699,222.153181 C409.531933,222.341368 409.875183,222.303229 410.06337,222.067995 C410.251557,221.832762 410.213418,221.489511 409.978184,221.301324 L409.828777,221.181798 Z" id="az-icon-transaction"></path>
        </g>
    </g>
</svg>