<?xml version="1.0" encoding="UTF-8"?>
<svg width="20px" height="20px" viewBox="0 0 20 20" version="1.1" xmlns="http://www.w3.org/2000/svg" xmlns:xlink="http://www.w3.org/1999/xlink">
    <!-- Generator: Sketch 49.2 (51160) - http://www.bohemiancoding.com/sketch -->
    <title>az-icon-facebook</title>
    <desc>Created with Sketch.</desc>
    <defs></defs>
    <g id="注册登录" stroke="none" stroke-width="1" fill="none" fill-rule="evenodd" fill-opacity="0.5">
        <g id="5-3-我的账号-找回登录密码" transform="translate(-1301.000000, -706.000000)" fill="#FFFFFF" fill-rule="nonzero">
            <g id="Group-28" transform="translate(0.000000, 636.000000)">
                <g id="Group-19" transform="translate(361.000000, 30.000000)">
                    <g id="Group-20" transform="translate(940.000000, 40.000000)">
                        <g id="facebook">
                            <path d="M20,10 C20,4.47727273 15.5227273,0 10,0 C4.47727273,0 0,4.47727273 0,10 C0,15.5227273 4.47727273,20 10,20 C15.5227273,20 20,15.5227273 20,10 Z M7.31454545,10 L7.31454545,8.08636363 L8.48727271,8.08636363 L8.48727273,6.92909092 C8.48727273,5.36818184 8.95363637,4.24363637 10.6627273,4.24363637 L12.6954546,4.24363637 L12.6954546,6.15272729 L11.2645455,6.15272729 C10.5472727,6.15272729 10.3845455,6.62909092 10.3845455,7.12818184 L10.3845455,8.08636365 L12.59,8.08636365 L12.2890909,10 L10.3845455,10 L10.3845455,15.7718182 L8.48727273,15.7718182 L8.48727273,10 L7.31454545,10 Z" id="az-icon-facebook"></path>
                        </g>
                    </g>
                </g>
            </g>
        </g>
    </g>
</svg>