<?xml version="1.0" encoding="UTF-8"?>
<svg width="18px" height="17px" viewBox="0 0 18 17" version="1.1" xmlns="http://www.w3.org/2000/svg" xmlns:xlink="http://www.w3.org/1999/xlink">
    <!-- Generator: Sketch 49.2 (51160) - http://www.bohemiancoding.com/sketch -->
    <title>az-icon-setting</title>
    <desc>Created with Sketch.</desc>
    <defs></defs>
    <g id="我的账号" stroke="none" stroke-width="1" fill="none" fill-rule="evenodd">
        <g id="5-我的账号-API管理" transform="translate(-380.000000, -637.000000)" fill="#D9B377">
            <g id="Group-14-Copy" transform="translate(360.000000, 614.000000)">
                <path d="M37.9320133,30.238438 C37.8619664,29.8430841 37.4849491,29.4394069 37.0914502,29.3520129 L36.7989013,29.2833462 C36.1107932,29.0731844 35.5009729,28.6133254 35.1115944,27.9370621 C34.7242761,27.2566373 34.6315669,26.4825759 34.8005036,25.7751005 L34.8005036,25.7751005 L34.8932128,25.496272 C35.0106444,25.1113222 34.8581894,24.5807156 34.551219,24.3164527 C34.551219,24.3164527 34.2751517,24.0813212 33.5005151,23.6297854 C32.7238183,23.1803305 32.3900653,23.0554819 32.3900653,23.0554819 C32.013048,22.9160676 31.4835756,23.0492395 31.2075083,23.3447145 L31.0035482,23.5652803 C30.4823166,24.0646747 29.7797871,24.3663922 29.0030903,24.3663922 C28.2263935,24.3663922 27.5176834,24.0605131 26.9964519,23.5590379 L26.7986723,23.3447145 C26.5267254,23.0492395 25.9951929,22.9181484 25.6161154,23.0554819 C25.6161154,23.0554819 25.278242,23.1803305 24.5015452,23.6297855 C23.7248483,24.0854828 23.4529015,24.3206144 23.4529015,24.3206144 C23.1459311,24.5807156 22.993476,25.1071605 23.1109076,25.496272 L23.195376,25.7771813 C23.3601923,26.4867375 23.2736637,27.2566372 22.8842852,27.9370621 C22.4949067,28.617487 21.8789058,29.0815076 21.1866773,29.2875078 L20.9044294,29.3520129 C20.5171111,29.4414877 20.1359734,29.8410032 20.0638663,30.2384379 C20.0638663,30.2384379 20,30.5942564 20,31.4994088 C20,32.4045611 20.0638663,32.7603796 20.0638663,32.7603796 C20.1339132,33.1598951 20.5109305,33.5594107 20.9044294,33.6468047 L21.1804967,33.7113098 C21.8727252,33.91731 22.4928465,34.3813306 22.8801648,35.0659171 C23.2674831,35.7463419 23.3601923,36.5204033 23.1912556,37.2278787 L23.1912556,37.2278787 L23.1109076,37.5025456 C22.993476,37.8874954 23.1459311,38.418102 23.4529015,38.6823648 C23.4529015,38.6823648 23.7289688,38.9174964 24.5036054,39.3690321 C25.2803022,39.8205679 25.6140552,39.9433357 25.6140552,39.9433357 C25.9910725,40.08275 26.5205448,39.9495781 26.7966121,39.6541031 L26.9902713,39.4439413 C27.5156232,38.9424661 28.2222731,38.6345062 29.0010301,38.6345062 C29.7797871,38.6345062 30.4905574,38.9445469 31.011789,39.4460221 L31.011789,39.4460221 L31.2054481,39.6561839 C31.477395,39.9516589 32.0089276,40.08275 32.388005,39.9454165 C32.388005,39.9454165 32.7258785,39.8205679 33.5025753,39.3711129 C34.2792721,38.9195772 34.551219,38.6844456 34.551219,38.6844456 C34.8581893,38.4243444 35.0106444,37.8937378 34.8932128,37.5046264 L34.8087444,37.2195554 C34.6439281,36.5141608 34.7304567,35.7442611 35.1198352,35.0679979 C35.5071535,34.387573 36.129335,33.9214716 36.8195033,33.7133906 L36.8195033,33.7133906 L37.0955706,33.6488855 C37.4828889,33.5594107 37.8640266,33.1598951 37.9361337,32.7624604 C37.9361337,32.7624604 38,32.4066419 38,31.5014896 C37.9958796,30.5963373 37.9320133,30.238438 37.9320133,30.238438 L37.9320133,30.238438 L37.9320133,30.238438 L37.9320133,30.238438 Z M29.0030903,35.1241798 C27.0232345,35.1241798 25.4142154,33.5032288 25.4142154,31.4994088 C25.4142154,29.4997504 27.0191141,27.8787994 29.0030903,27.8787994 C30.9829461,27.8787994 32.5919652,29.4997504 32.5919652,31.5035704 C32.5878448,33.5032288 30.9829461,35.1241798 29.0030903,35.1241798 L29.0030903,35.1241798 L29.0030903,35.1241798 L29.0030903,35.1241798 Z" id="az-icon-setting"></path>
            </g>
        </g>
    </g>
</svg>