<?xml version="1.0" encoding="UTF-8"?>
<svg width="7px" height="14px" viewBox="0 0 7 14" version="1.1" xmlns="http://www.w3.org/2000/svg" xmlns:xlink="http://www.w3.org/1999/xlink">
    <!-- Generator: Sketch 49.2 (51160) - http://www.bohemiancoding.com/sketch -->
    <title>az-icon-arrow-left</title>
    <desc>Created with Sketch.</desc>
    <defs></defs>
    <g id="注册登录" stroke="none" stroke-width="1" fill="none" fill-rule="evenodd">
        <g id="1-3-登录-选择哪个国家号码" transform="translate(-760.000000, -273.000000)" fill="#555555">
            <g id="Group" transform="translate(740.000000, 252.000000)">
                <path d="M20.0767053,28.3251186 C19.9394755,27.9920852 19.9844074,27.584619 20.2274179,27.3168101 L25.7367715,21.238587 C26.037204,20.9073281 26.510799,20.9230739 26.7952987,21.2729737 C27.07927,21.6233965 27.0662516,22.1758247 26.7658191,22.5076814 L21.8225026,27.9624055 L26.7463155,33.4980812 C27.0437696,33.8328703 27.0527688,34.3852985 26.7658191,34.7327888 C26.6190777,34.9109794 26.4229847,35 26.2268117,35 C26.039702,35 25.8525282,34.9185441 25.7073079,34.7555389 L20.2478983,28.6178816 C20.2373939,28.6057221 20.2334227,28.5888183 20.2229183,28.576061 C20.2149119,28.5672449 20.2064731,28.5608756 20.1984827,28.5515365 C20.1560488,28.4997416 20.1335828,28.4363103 20.1046476,28.3768947 C20.0966733,28.3588515 20.0836869,28.3437595 20.0767053,28.3251186 Z" id="az-icon-arrow-left"></path>
            </g>
        </g>
    </g>
</svg>