<?xml version="1.0" encoding="UTF-8"?>
<svg width="15px" height="18px" viewBox="0 0 15 18" version="1.1" xmlns="http://www.w3.org/2000/svg" xmlns:xlink="http://www.w3.org/1999/xlink">
    <!-- Generator: Sketch 49.2 (51160) - http://www.bohemiancoding.com/sketch -->
    <title>az-icon-Android</title>
    <desc>Created with Sketch.</desc>
    <defs></defs>
    <g id="注册登录" stroke="none" stroke-width="1" fill="none" fill-rule="evenodd" fill-opacity="0.5">
        <g id="5-3-我的账号-找回登录密码" transform="translate(-1461.000000, -743.000000)" fill="#FFFFFF" fill-rule="nonzero">
            <g id="Group-28" transform="translate(0.000000, 636.000000)">
                <g id="Group-19" transform="translate(361.000000, 30.000000)">
                    <g id="Group-17" transform="translate(1100.000000, 40.000000)">
                        <path d="M9.75360468,40.7762238 L9.75360468,40.0037463 L9.01442207,40.0037463 L9.01442207,40.7762238 L9.75360468,40.7762238 Z M5.98557625,40.7762238 L5.98557625,40.0037463 L5.24639364,40.0037463 L5.24639364,40.7762238 L5.98557625,40.7762238 Z M10.1412248,38.6333666 C11.3852151,39.522977 12.0072102,40.7287712 12.0072102,42.2507493 L2.99278814,42.2507493 C2.99278814,40.7052947 3.60326484,39.4995005 4.82421823,38.6333666 L3.83789021,37.6496004 C3.65008975,37.4622877 3.65008975,37.2867133 3.83789021,37.1228771 C4.02569067,36.959041 4.2017223,36.959041 4.36598511,37.1228771 L5.49278786,38.2467532 C6.10326456,37.9190809 6.772335,37.7552448 7.49999918,37.7552448 C8.2041257,37.7552448 8.86142731,37.9190809 9.471904,38.2467532 L10.5987068,37.1228771 C10.7865072,36.959041 10.9625389,36.959041 11.1268017,37.1228771 C11.2910645,37.2867133 11.2910645,37.4622877 11.1268017,37.6496004 L10.1412248,38.6333666 Z M13.8731956,43.023976 C14.1781835,43.023976 14.4423562,43.1351149 14.6657135,43.3573926 C14.8890708,43.5796703 15.0004991,43.8431568 14.9999983,44.1478522 L14.9999983,49.3806194 C14.9999983,49.7082917 14.88857,49.9775225 14.6657135,50.1883117 C14.442857,50.3991009 14.1786843,50.5044955 13.8731956,50.5044955 C13.5677068,50.5044955 13.3035342,50.3991009 13.0806776,50.1883117 C12.8578211,49.9775225 12.7463928,49.7082917 12.7463928,49.3806194 L12.7463928,44.1478522 C12.7463928,43.8436563 12.8578211,43.5801698 13.0806776,43.3573926 C13.3035342,43.1346154 13.5677068,43.0234765 13.8731956,43.023976 Z M1.12680276,43.023976 C1.43179071,43.023976 1.69596335,43.1351149 1.9193207,43.3573926 C2.14267804,43.5796703 2.25410632,43.8431568 2.25360552,44.1478522 L2.25360552,49.3806194 C2.25360552,49.7082917 2.14217724,49.9775225 1.9193207,50.1883117 C1.69646415,50.3991009 1.43229151,50.5044955 1.12680276,50.5044955 C0.821314011,50.5044955 0.557141364,50.3991009 0.334284819,50.1883117 C0.111428273,49.9775225 -2.50450674e-16,49.7082917 0,49.3806194 L0,44.1478522 C0,43.8436563 0.111428273,43.5801698 0.334284819,43.3573926 C0.557141364,43.1346154 0.821314011,43.0234765 1.12680276,43.023976 Z M2.99278813,50.5044955 L2.99278813,43.023976 L12.0072102,43.023976 L12.0072102,50.5044955 C12.0072102,50.7152847 11.9368476,50.8908591 11.7961225,51.0312188 C11.6553973,51.1715784 11.4793657,51.2417582 11.2680276,51.2417582 L10.4935385,51.2417582 L10.4935385,53.8761239 C10.4935385,54.2037962 10.3821102,54.473027 10.1592537,54.6838162 C9.93639711,54.8946054 9.67222446,55 9.36673571,55 C9.06124696,55 8.79707432,54.8946054 8.57421777,54.6838162 C8.35136123,54.473027 8.23993295,54.2037962 8.23993295,53.8761239 L8.23993295,51.2417582 L6.76081653,51.2417582 L6.76081653,53.8761239 C6.76081653,54.2037962 6.64938826,54.473027 6.42653171,54.6838162 C6.20367517,54.8946054 5.93950252,55 5.63401377,55 C5.32852503,55 5.06435238,54.8946054 4.84149583,54.6838162 C4.61863929,54.473027 4.50721102,54.2037962 4.50721102,53.8761239 L4.50721102,51.2417582 L3.73272192,51.2417582 C3.5213838,51.2417582 3.34535217,51.1715784 3.20462703,51.0312188 C3.06390188,50.8908591 2.99353931,50.7152847 2.99353931,50.5044955 L2.99278813,50.5044955 Z" id="az-icon-Android"></path>
                    </g>
                </g>
            </g>
        </g>
    </g>
</svg>