<?xml version="1.0" encoding="UTF-8"?>
<svg width="20px" height="20px" viewBox="0 0 20 20" version="1.1" xmlns="http://www.w3.org/2000/svg" xmlns:xlink="http://www.w3.org/1999/xlink">
    <!-- Generator: Sketch 49.2 (51160) - http://www.bohemiancoding.com/sketch -->
    <title>az-icon-Twitter</title>
    <desc>Created with Sketch.</desc>
    <defs></defs>
    <g id="注册登录" stroke="none" stroke-width="1" fill="none" fill-rule="evenodd" fill-opacity="0.5">
        <g id="5-3-我的账号-找回登录密码" transform="translate(-1301.000000, -777.000000)" fill="#FFFFFF" fill-rule="nonzero">
            <g id="Group-28" transform="translate(0.000000, 636.000000)">
                <g id="Group-19" transform="translate(361.000000, 30.000000)">
                    <g id="Group-20" transform="translate(940.000000, 40.000000)">
                        <path d="M20,81 C20,82.3541667 19.7358631,83.6488095 19.2075893,84.8839286 C18.6793155,86.1190476 17.96875,87.1830357 17.0758929,88.0758929 C16.1830357,88.96875 15.1190476,89.6793155 13.8839286,90.2075893 C12.6488095,90.7358631 11.3541667,91 10,91 C8.64583333,91 7.35119048,90.7358631 6.11607143,90.2075893 C4.88095238,89.6793155 3.81696428,88.96875 2.92410715,88.0758929 C2.03125001,87.1830357 1.32068454,86.1190476 0.792410723,84.8839286 C0.264136908,83.6488095 -3.70074342e-16,82.3541667 0,81 C3.70074342e-16,79.6458333 0.264136908,78.3511905 0.792410723,77.1160714 C1.32068454,75.8809524 2.03125001,74.8169643 2.92410715,73.9241071 C3.81696428,73.03125 4.88095238,72.3206845 6.11607143,71.7924107 C7.35119048,71.2641369 8.64583333,71 10,71 C11.3541667,71 12.6488095,71.2641369 13.8839286,71.7924107 C15.1190476,72.3206845 16.1830357,73.03125 17.0758929,73.9241071 C17.96875,74.8169643 18.6793155,75.8809524 19.2075893,77.1160714 C19.7358631,78.3511905 20,79.6458333 20,81 Z M14.9041998,78.9245907 C15.3833855,78.5788952 15.5040132,78.1470942 15.833331,77.6557868 C15.834281,77.6553688 15.5427151,77.6551219 15.5427151,77.6547039 L15.5427151,77.6532029 C15.5427151,77.6540959 15.833901,77.6548749 15.833312,77.6557678 C15.3935502,77.8501514 15.2144802,77.9821408 14.7186699,78.0412291 C15.2257848,77.7379405 15.6143431,77.2557529 15.796928,76.6829188 C15.3227582,76.964187 14.7948388,77.1680893 14.2351523,77.2790843 C13.7872398,76.8019885 13.1456845,76.5031268 12.4391132,76.5031268 C11.0823038,76.5031268 9.9752045,77.6028163 9.9752045,78.9589037 C9.9752045,79.1510644 9.98232931,79.3388741 10.0240142,79.5185902 C7.98329978,79.415537 6.14378981,78.4379761 4.93238342,76.9517424 C4.7204823,77.3148983 4.54061428,77.7371996 4.54061428,78.1865371 C4.54061428,79.0385115 5.15807815,79.7904156 5.81716986,80.2308994 C5.41455203,80.2178087 4.77001392,80.1074598 4.77001392,79.9233739 C4.77001392,79.9336146 4.77001392,79.9431144 4.77001392,79.9540011 C4.77001392,81.1435961 5.55191822,82.1365275 6.67499607,82.3622983 C6.4689468,82.4185747 6.33771744,82.4484799 6.11342865,82.4484799 C5.95476406,82.4484799 5.72568741,82.4323873 5.57515459,82.4039261 C5.88794291,83.380062 6.7567698,84.0895593 7.83158899,84.1100218 C6.99133731,84.7683345 5.91287022,85.1614526 4.76216714,85.1614526 C4.56337565,85.1614526 4.35888434,85.149008 4.16666667,85.1271206 C5.2539115,85.8234703 6.53954884,86.230401 7.92704235,86.230401 C12.444718,86.230401 14.9126356,82.4879608 14.9126356,79.2424138 C14.9126356,79.1357128 14.9092917,79.0297907 14.9041998,78.9245907 Z" id="az-icon-Twitter"></path>
                    </g>
                </g>
            </g>
        </g>
    </g>
</svg>