<?xml version="1.0" encoding="UTF-8"?>
<svg width="123px" height="70px" viewBox="0 0 123 70" version="1.1" xmlns="http://www.w3.org/2000/svg" xmlns:xlink="http://www.w3.org/1999/xlink">
    <!-- Generator: Sketch 49.2 (51160) - http://www.bohemiancoding.com/sketch -->
    <title>az-icon-mail</title>
    <desc>Created with Sketch.</desc>
    <defs></defs>
    <g id="注册登录" stroke="none" stroke-width="1" fill="none" fill-rule="evenodd">
        <g id="5-1-忘记密码-邮箱验证码确认" transform="translate(-899.000000, -339.000000)" fill="#C9933E" fill-rule="nonzero">
            <g id="Group-11" transform="translate(740.000000, 253.000000)">
                <path d="M205.125,138.911502 L205.125,140 C205.125,146.075132 210.172989,151 216.4,151 L265.6,151 C271.827011,151 276.875,146.075132 276.875,140 L276.875,139.212941 L251.556731,124.299281 L242.39449,130.097403 C241.546241,130.634199 240.453759,130.634199 239.60551,130.097403 L230.196567,124.143161 L205.125,138.911502 Z M205.125,133.070821 L225.416471,121.118182 L205.125,108.277173 L205.125,133.070821 Z M200,137.502743 C200,137.502743 200,137.502743 200,137.502743 L200,102 C200,93.163444 207.34253,86 216.4,86 L265.6,86 C274.65747,86 282,93.163444 282,102 L282,140 C282,148.836556 274.65747,156 265.6,156 L216.4,156 C207.34253,156 200,148.836556 200,140 L200,137.502744 Z M276.875,133.372259 L276.875,108.277173 L256.336828,121.274302 L276.875,133.372259 Z M276.875,102.317422 L276.875,102 C276.875,95.9248678 271.827011,91 265.6,91 L216.4,91 C210.172989,91 205.125,95.9248678 205.125,102 L205.125,102.317422 L241,125.020125 L276.875,102.317422 Z M161.5,99 L189.3,99 C190.680712,99 191.8,100.119288 191.8,101.5 C191.8,102.880712 190.680712,104 189.3,104 L161.5,104 C160.119288,104 159,102.880712 159,101.5 C159,100.119288 160.119288,99 161.5,99 Z M169.7,120 L189.3,120 C190.680712,120 191.8,121.119288 191.8,122.5 C191.8,123.880712 190.680712,125 189.3,125 L169.7,125 C168.319288,125 167.2,123.880712 167.2,122.5 C167.2,121.119288 168.319288,120 169.7,120 Z M177.9,141 L189.3,141 C190.680712,141 191.8,142.119288 191.8,143.5 C191.8,144.880712 190.680712,146 189.3,146 L177.9,146 C176.519288,146 175.4,144.880712 175.4,143.5 C175.4,142.119288 176.519288,141 177.9,141 Z" id="az-icon-mail"></path>
            </g>
        </g>
    </g>
</svg>