<?xml version="1.0" encoding="UTF-8"?>
<svg width="80px" height="80px" viewBox="0 0 80 80" version="1.1" xmlns="http://www.w3.org/2000/svg" xmlns:xlink="http://www.w3.org/1999/xlink">
    <!-- Generator: Sketch 50.2 (55047) - http://www.bohemiancoding.com/sketch -->
    <title>谷歌验证器(未绑定)</title>
    <desc>Created with Sketch.</desc>
    <defs></defs>
    <g id="注册登录" stroke="none" stroke-width="1" fill="none" fill-rule="evenodd">
        <g id="1-4-登录-已有二次验证-谷歌二次验证" transform="translate(-245.000000, -345.000000)" fill-rule="nonzero">
            <g id="Group-3">
                <g id="Group-11" transform="translate(85.000000, 259.000000)">
                    <g id="谷歌验证器(未绑定)" transform="translate(160.000000, 86.000000)">
                        <path d="M0.0111576011,40 C0.0111573882,54.2866375 7.63298764,67.4880351 20.0055786,74.6313539 C32.3781696,81.7746727 47.6218304,81.7746727 59.9944214,74.6313539 C72.3670124,67.4880351 79.9888426,54.2866375 79.9888424,40 C79.9888424,17.9147722 62.0852278,0.0111576011 40,0.0111576011 C17.9147722,0.0111576011 0.0111576011,17.9147722 0.0111576011,40 Z" id="Shape" fill="#ECCA97"></path>
                        <path d="M10.2761506,40 C10.2761504,50.6193087 15.941484,60.4319547 25.1380751,65.7416092 C34.3346662,71.0512636 45.6653338,71.0512636 54.8619249,65.7416092 C64.058516,60.4319547 69.7238496,50.6193087 69.7238494,40 C69.7238494,23.5839713 56.4160287,10.2761506 40,10.2761506 C23.5839713,10.2761506 10.2761506,23.5839713 10.2761506,40 Z" id="Shape" fill="#A67C29"></path>
                        <path d="M68.9205021,33.1179916 L40.2320781,33.1179916 L40.2320781,45.2663877 L55.9687587,45.2663877 C53.7640167,51.9698745 47.4443515,56.8167364 40,56.8167364 C30.7168759,56.8167364 23.1921897,49.2920502 23.1921897,40.0089261 C23.1921897,30.725802 30.7168759,23.1921897 40,23.1921897 C43.9006974,23.1921897 47.4889819,24.5221757 50.3364017,26.7447699 L59.8694561,17.8900976 C54.6030683,13.1592748 47.6407252,10.2761506 40,10.2761506 C23.5849372,10.2761506 10.2761506,23.5849372 10.2761506,40 C10.2761506,56.4150628 23.5849372,69.7238494 40,69.7238494 C56.4150628,69.7238494 69.7238494,56.4150628 69.7238494,40 C69.7238494,37.6256625 69.4471409,35.3227336 68.9205021,33.1179916 Z" id="Shape" fill="#C9933E"></path>
                        <path d="M37.2596932,17.3634589 C37.2596931,18.3424762 37.7819926,19.2471256 38.6298465,19.7366343 C39.4777005,20.226143 40.5222995,20.226143 41.3701535,19.7366343 C42.2180074,19.2471256 42.7403069,18.3424762 42.7403068,17.3634589 C42.7403068,15.8500292 41.5134297,14.623152 40,14.623152 C38.4865703,14.623152 37.2596932,15.8500292 37.2596932,17.3634589 Z" id="Shape" fill="#ECCA97"></path>
                        <path d="M21.3355649,23.9241283 C21.3355649,25.437558 22.562442,26.6644351 24.0758717,26.6644351 C25.5893014,26.6644351 26.8161785,25.437558 26.8161785,23.9241283 C26.8161785,22.4106986 25.5893014,21.1838215 24.0758717,21.1838215 C22.562442,21.1838215 21.3355649,22.4106986 21.3355649,23.9241283 Z" id="Shape" fill="#ECCA97"></path>
                        <path d="M14.7124128,40 C14.7124128,41.5134297 15.93929,42.7403068 17.4527197,42.7403068 C18.9661493,42.7403068 20.1930265,41.5134297 20.1930265,40 C20.1930265,38.4865703 18.9661493,37.2596932 17.4527197,37.2596932 C15.93929,37.2596932 14.7124128,38.4865703 14.7124128,40 Z" id="Shape" fill="#ECCA97"></path>
                        <path d="M21.3355649,56.0312413 C21.3355649,57.544671 22.562442,58.7715481 24.0758717,58.7715481 C25.5893014,58.7715481 26.8161785,57.544671 26.8161785,56.0312413 C26.8161785,54.5178116 25.5893014,53.2909344 24.0758717,53.2909344 C22.562442,53.2909344 21.3355649,54.5178116 21.3355649,56.0312413 Z" id="Shape" fill="#ECCA97"></path>
                        <path d="M37.2596932,62.6990237 C37.2596931,63.6780411 37.7819926,64.5826904 38.6298465,65.0721991 C39.4777005,65.5617078 40.5222995,65.5617078 41.3701535,65.0721991 C42.2180074,64.5826904 42.7403069,63.6780411 42.7403068,62.6990237 C42.7403068,61.185594 41.5134297,59.9587169 40,59.9587169 C38.4865703,59.9587169 37.2596932,61.185594 37.2596932,62.6990237 Z" id="Shape" fill="#ECCA97"></path>
                        <path d="M53.3266388,56.0312413 C53.3266388,57.544671 54.5535159,58.7715481 56.0669456,58.7715481 C57.5803753,58.7715481 58.8072524,57.544671 58.8072524,56.0312413 C58.8072524,54.5178116 57.5803753,53.2909344 56.0669456,53.2909344 C54.5535159,53.2909344 53.3266388,54.5178116 53.3266388,56.0312413 Z" id="Shape" fill="#ECCA97"></path>
                        <path d="M60.0569038,40 C60.0569038,41.5134297 61.2837809,42.7403068 62.7972106,42.7403068 C64.3106403,42.7403068 65.5375174,41.5134297 65.5375174,40 C65.5375174,38.4865703 64.3106403,37.2596932 62.7972106,37.2596932 C61.2837809,37.2596932 60.0569038,38.4865703 60.0569038,40 Z" id="Shape" fill="#ECCA97"></path>
                    </g>
                </g>
            </g>
        </g>
    </g>
</svg>