<?xml version="1.0" encoding="UTF-8"?>
<svg width="22px" height="16px" viewBox="0 0 22 16" version="1.1" xmlns="http://www.w3.org/2000/svg" xmlns:xlink="http://www.w3.org/1999/xlink">
    <!-- Generator: Sketch 49.3 (51167) - http://www.bohemiancoding.com/sketch -->
    <title>az-icon-display</title>
    <desc>Created with Sketch.</desc>
    <defs></defs>
    <g id="注册登录" stroke="none" stroke-width="1" fill="none" fill-rule="evenodd">
        <g id="1-2-登录-输入及密码显示" transform="translate(-1087.000000, -441.000000)" fill="#C9933E" fill-rule="nonzero">
            <g id="Group" transform="translate(740.000000, 243.000000)">
                <g id="Group-5" transform="translate(60.000000, 120.000000)">
                    <g id="密码" transform="translate(0.000000, 64.000000)">
                        <path d="M298.039575,18 L298.039575,22 L302.015081,22 C302.015081,24.209139 300.235186,26 298.039575,26 C295.843963,26 294.064068,24.209139 294.064068,22 C294.064068,19.790861 295.843963,18 298.039575,18 Z M298.039575,30 C292.836573,30 289.473618,27.2266014 287.203477,22.4299336 L287,22 L287.203477,21.5700664 C289.473618,16.7733986 292.836573,14 298.039575,14 C303.534438,14 307.908347,17.3868077 308.94519,21.7683795 L309,22 L308.94519,22.2316205 C307.908347,26.6131923 303.534438,30 298.039575,30 Z M298.039575,28 C302.521709,28 306.030357,25.3607562 306.952329,22 C306.030357,18.6392438 302.521709,16 298.039575,16 C293.866445,16 291.16355,18.1087289 289.207798,22 C291.16355,25.8912711 293.866445,28 298.039575,28 Z" id="az-icon-display"></path>
                    </g>
                </g>
            </g>
        </g>
    </g>
</svg>