<?xml version="1.0" encoding="UTF-8"?>
<svg width="22px" height="20px" viewBox="0 0 22 20" version="1.1" xmlns="http://www.w3.org/2000/svg" xmlns:xlink="http://www.w3.org/1999/xlink">
    <!-- Generator: Sketch 49.3 (51167) - http://www.bohemiancoding.com/sketch -->
    <title>az-icon-hide</title>
    <desc>Created with Sketch.</desc>
    <defs></defs>
    <g id="注册登录" stroke="none" stroke-width="1" fill="none" fill-rule="evenodd">
        <g id="1-登录" transform="translate(-1087.000000, -439.000000)" fill="#D5D5D5" fill-rule="nonzero">
            <g id="Group" transform="translate(740.000000, 243.000000)">
                <g id="Group-4" transform="translate(60.000000, 120.000000)">
                    <g id="密码" transform="translate(0.000000, 64.000000)">
                        <path d="M301.852314,21.9332657 L301.950933,21.9332657 C301.950986,21.9417617 301.951013,21.950264 301.951013,21.9587725 C301.951013,22.0060393 301.950194,22.0531141 301.948569,22.0999834 L301.852314,21.9332657 Z M304.108416,25.8409483 C305.406631,24.8017403 306.333117,23.4492825 306.744532,21.9535304 C305.863133,18.7490943 302.617716,16.2023354 298.417728,15.9843876 L297.266419,13.9902617 C297.519523,13.9762904 297.777209,13.9692568 298.039575,13.9692568 C303.534438,13.9692568 307.908347,17.3471875 308.94519,21.7172749 L309,21.9482883 L308.94519,22.1793018 C308.427599,24.3608453 307.078412,26.2951437 305.173314,27.685406 L304.108416,25.8409483 Z M304.185035,30.9807437 L302.535208,31.9332714 L301.157897,29.547698 C300.174012,29.7945847 299.128817,29.9273199 298.039575,29.9273199 C292.836573,29.9273199 289.473618,27.1611905 287.203477,22.377095 L287,21.9482883 L287.203477,21.5194816 C288.606115,18.5635619 290.425941,16.3780123 292.839207,15.1393045 L291.602566,12.9973789 L293.330077,12 L293.43179,12.1761718 L293.354105,12.221023 L304.185035,30.9807437 Z M295.15385,19.1483842 L293.79884,16.801437 C291.777053,17.7505394 290.238675,19.4954548 289,21.9535304 C290.955752,25.8346023 293.658647,27.9378041 297.831777,27.9378041 C298.618722,27.9378041 299.375658,27.8566596 300.093855,27.7047228 L299.002226,25.8139667 C298.674701,25.9015851 298.330539,25.9482883 297.975506,25.9482883 C295.779895,25.9482883 294,24.1621213 294,21.9587725 C294,20.8624927 294.440627,19.8694893 295.15385,19.1483842 Z" id="az-icon-hide"></path>
                    </g>
                </g>
            </g>
        </g>
    </g>
</svg>