<?xml version="1.0" standalone="no"?><!DOCTYPE svg PUBLIC "-//W3C//DTD SVG 1.1//EN" "http://www.w3.org/Graphics/SVG/1.1/DTD/svg11.dtd"><svg class="icon" width="18px" height="18.00px" viewBox="0 0 1024 1024" version="1.1" xmlns="http://www.w3.org/2000/svg"><path d="M263.66 363.568h496.734v360.361c0 32.982-26.575 59.558-58.922 59.558h-40.711v122.82c0 30.863-24.829 55.693-55.64 55.693-30.863 0-55.852-24.882-55.852-55.693v-122.82h-74.539v122.82c0 30.811-24.987 55.693-55.852 55.693-30.228 0-55.163-24.882-55.163-55.693l-0.476-122.82h-40.075c-32.928 0-59.505-26.523-59.505-59.557v-360.361zM186.791 353.298c-30.811 0-55.746 24.935-55.746 55.163v232.723c0 30.863 24.935 55.693 55.746 55.693s55.163-24.882 55.163-55.693v-232.723c0-30.228-24.775-55.163-55.163-55.163zM761.982 344.086h-500.493c0-86.027 51.458-160.726 127.744-199.636l-38.487-70.834c-2.171-3.812-1.112-8.682 2.7-10.853 3.759-1.641 8.682-0.583 10.852 3.282l38.911 71.416c33.087-14.664 69.88-22.763 108.791-22.763s75.704 8.1 108.791 22.711l38.911-71.416c2.171-3.812 7.094-4.871 10.852-3.282 3.812 2.171 4.871 7.041 2.7 10.853l-38.487 70.834c75.81 38.963 127.215 113.662 127.215 199.689zM418.879 232.648c0-11.382-9.158-21.123-21.017-21.123-11.435 0-20.594 9.741-20.594 21.123 0 11.329 9.158 21.070 20.594 21.070 11.858 0.053 21.017-9.688 21.017-21.070zM646.732 232.648c0-11.382-9.158-21.123-20.594-21.123-11.912 0-21.017 9.741-21.017 21.123 0 11.329 9.158 21.070 21.017 21.070 11.435 0.053 20.594-9.688 20.594-21.070zM837.209 353.298c-30.335 0-55.163 24.352-55.163 55.163v232.723c0 30.863 24.829 55.693 55.163 55.693 30.811 0 55.746-24.882 55.746-55.693v-232.723c-0.053-30.811-24.935-55.163-55.746-55.163z" fill="#cdcdcd" /></svg>