<?xml version="1.0" encoding="UTF-8"?>
<svg width="16px" height="20px" viewBox="0 0 16 20" version="1.1" xmlns="http://www.w3.org/2000/svg" xmlns:xlink="http://www.w3.org/1999/xlink">
    <!-- Generator: Sketch 49.3 (51167) - http://www.bohemiancoding.com/sketch -->
    <title>az-icon-apple2</title>
    <desc>Created with Sketch.</desc>
    <defs></defs>
    <g id="我的账号" stroke="none" stroke-width="1" fill="none" fill-rule="evenodd" opacity="0.8">
        <g id="4-我的账号-开启谷歌验证" transform="translate(-643.000000, -324.000000)" fill="#D5D5D5" fill-rule="nonzero">
            <g id="Group-4" transform="translate(360.000000, 154.000000)">
                <g id="Group-5" transform="translate(40.000000, 100.000000)">
                    <g id="Group-15" transform="translate(201.000000, 60.000000)">
                        <g id="Group-13" transform="translate(42.000000, 10.000000)">
                            <g id="苹果">
                                <path d="M15.9990771,14.6502196 C15.9744336,14.7260293 15.5887634,16.0943939 14.6412221,17.5019269 C13.8205947,18.7161451 12.9716273,19.9404714 11.6322549,19.9619508 C10.3138295,19.9859572 9.89242626,19.1621587 8.38794266,19.1621587 C6.88592343,19.1621587 6.41400106,19.9404714 5.16827385,19.9859572 C3.88065277,20.039024 2.88875327,18.6592879 2.06689369,17.4513871 C0.382512789,14.9762012 -0.912501333,10.4377287 0.824862999,7.39649724 C1.68122343,5.87398628 3.21774352,4.90741293 4.89103486,4.87961605 C6.1527803,4.85560965 7.35291708,5.74890032 8.11932889,5.74890032 C8.90668761,5.74890032 10.3581877,4.66861246 11.8897792,4.83033976 C12.5305093,4.85813664 14.3245536,5.1019911 15.4803321,6.80644527 C15.3903835,6.86962 13.3338862,8.1027907 13.3572975,10.6146179 C13.3881019,13.6457414 15.9719693,14.6401116 15.9990771,14.6502196 M10.8880223,3.20548575 C11.5780393,2.34883643 12.0327112,1.17125949 11.9131905,0.00126349457 C10.9274518,0.0404318263 9.7248507,0.667125133 9.01142234,1.51998397 C8.37931745,2.26291878 7.8236073,3.45944813 7.97886113,4.61554569 C9.07426318,4.6825109 10.2004696,4.03181119 10.8867901,3.20548575" id="az-icon-apple2"></path>
                            </g>
                        </g>
                    </g>
                </g>
            </g>
        </g>
    </g>
</svg>