<?xml version="1.0" encoding="UTF-8"?>
<svg width="60px" height="60px" viewBox="0 0 60 60" version="1.1" xmlns="http://www.w3.org/2000/svg" xmlns:xlink="http://www.w3.org/1999/xlink">
    <!-- Generator: Sketch 50.2 (55047) - http://www.bohemiancoding.com/sketch -->
    <title>暂无内容</title>
    <desc>Created with Sketch.</desc>
    <defs>
        <linearGradient x1="52.4224281%" y1="100%" x2="52.4224281%" y2="18.2486979%" id="linearGradient-1">
            <stop stop-color="#CDAA78" stop-opacity="0" offset="0%"></stop>
            <stop stop-color="#CDAA78" offset="100%"></stop>
        </linearGradient>
        <linearGradient x1="50%" y1="0%" x2="50%" y2="100%" id="linearGradient-2">
            <stop stop-color="#EEDCBB" offset="0%"></stop>
            <stop stop-color="#D9B786" stop-opacity="0" offset="100%"></stop>
        </linearGradient>
    </defs>
    <g id="交易页面" stroke="none" stroke-width="1" fill="none" fill-rule="evenodd">
        <g id="1-币币交易-限价单-当前委托(最小宽度）-按钮hover效果" transform="translate(-727.000000, -1051.000000)">
            <g id="当前委托列表-暂无内容+全部撤销-1" transform="translate(310.000000, 857.000000)">
                <g id="暂无内容" transform="translate(417.000000, 194.000000)">
                    <polygon id="Rectangle-11" fill="url(#linearGradient-1)" points="0 0 60 0 60 51 0 51"></polygon>
                    <rect id="Rectangle-11-Copy" fill="url(#linearGradient-2)" x="5" y="5" width="50" height="46"></rect>
                    <circle id="Oval-5" fill="#EEDAB9" cx="18" cy="20" r="3"></circle>
                    <circle id="Oval-5-Copy-2" fill="#EEDAB9" cx="42" cy="20" r="3"></circle>
                    <circle id="Oval-5-Copy" fill="#EEDAB9" cx="30" cy="20" r="3"></circle>
                    <g id="Group-21" transform="translate(31.000000, 11.000000)">
                        <path d="M9.62075463,23.7991306 C8.78355658,31.0912442 8.50449056,35.317712 8.78355658,36.4785341 C9.2021556,38.2197673 11.6687653,44.3280043 11.9787812,44.9517989 C12.1854585,45.3676619 12.6570934,45.2741185 13.3936858,44.6711687 C12.7538579,40.6395216 12.3580835,38.2124753 12.2063626,37.3900299 C11.9787812,36.1563618 12.1363376,28.1424909 12.7650117,28.1424909 C13.3936858,28.1424909 13.9569885,44.6214507 13.9569885,45.5941548 C13.9569885,46.5668589 16.0030048,46.5603707 16.0030048,45.5941548 C16.0030048,44.9500109 16.5527161,38.0042289 17.6521387,24.7568089 L9.62075463,23.7991306 Z" id="Path-37" fill="#C9933E"></path>
                        <path d="M11.0066106,8.24903453 C11.4647236,8.24903453 11.9332632,8.13155074 12.4122296,7.89658314 C12.5889123,8.34692272 12.6546575,8.85916526 12.6094651,9.43331077 C13.8198618,9.55403054 14.6050781,9.45008989 14.9651142,9.12148881 C14.9651142,8.05397727 14.9651142,7.59087358 14.9651142,7.03437611 C14.9651142,6.47787864 15.7783053,4.46627197 14.6442909,2.84486972 C13.5102764,1.22346746 12.1006911,1.12962425 10.7449219,1.55533447 C9.38915264,1.9810447 9.24149639,3.5255926 9.46036659,4.57162087 C9.67923678,5.61764915 10.1506911,6.13747226 10.1506911,6.90340909 C10.1506911,7.41403365 10.4359976,7.86257546 11.0066106,8.24903453 Z" id="Path-7" fill="#F9DCC5"></path>
                        <path d="M9.81544471,1.85376309 C9.63407452,2.51920499 10.3164663,2.3766424 11.0222957,2.17637163 C11.728125,1.97610085 12.7120493,1.94742654 13.3108774,2.59093572 C13.9097055,3.23444491 14.2560397,3.90348233 14.2560397,4.43094593 C14.7022536,4.43094593 14.9716947,4.61593572 14.9716947,4.90079124 C14.9716947,5.18564675 14.4348858,5.6308627 14.4348858,5.87715621 C14.4348858,6.12344971 14.465625,6.87482466 14.8279147,7.03239857 C15.1902043,7.18997248 16.5237079,5.73504306 16.3083534,3.72280717 C16.0929988,1.71057129 15.0084867,0.442159757 13.0790781,0.442159757 C11.1496695,0.442159757 9.9968149,1.1883212 9.81544471,1.85376309 Z" id="Path-33" fill="#5C5747"></path>
                        <path d="M17.5889423,12.917375 C18.210025,14.5232301 19.5486779,16.3951472 21.427171,16.3951472 C22.8561073,15.447052 24.3097206,13.8855827 25.7880108,11.7107391 C26.7240084,11.5727608 27.5244892,11.5727608 28.1894531,11.7107391 C27.6796875,11.0537692 26.7330604,10.3189337 25.0714769,10.4917436 C24.4510592,11.2197252 22.1607197,13.4926591 21.7939453,13.8755826 C21.2108248,13.3082761 20.2512395,11.4212993 19.4097431,11.1789384 C18.5682467,10.9365775 17.201311,11.9151258 17.5889423,12.917375 Z" id="Path-35" fill="#F9DCC5"></path>
                        <path d="M9.47122007,11.8538709 C8.47654406,12.1256107 7.66822253,13.1545442 7.06018853,14.2411969 C6.23414334,12.9526804 4.31988634,10.9060507 3.77096533,10.4612556 C2.5804071,10.1557016 0.733868788,10.7713046 0.127678866,11.0073913 C1.61380207,11.204658 2.22460219,11.3143755 2.90557979,12.014463 C3.97811693,13.9166415 6.25934577,17.055849 7.06018853,17.1720025 C7.86103129,17.2881559 10.4575977,15.1129096 11.1807842,14.0742711 C11.9039708,13.0356325 10.5689596,11.5425961 9.47122007,11.8538709 Z" id="Path-36" fill="#F9DCC5"></path>
                        <path d="M11.3900841,8.38224876 C9.48479567,10.333151 8.25009014,11.6472556 7.68596755,12.3245628 C8.65183293,12.9113525 9.40005258,13.4374978 9.9306265,13.9029985 L8.8130634,24.3822701 C11.2705454,25.3280432 14.246244,25.5644864 17.7401593,25.0915999 C17.7401593,22.9586293 17.7401593,19.3061371 17.7401593,14.1341234 C19.3381911,13.7670052 20.2063176,12.7730671 20.3445388,11.1523091 C19.2948092,10.0867975 16.6450195,7.98622409 16.1351412,7.98622409 C15.7114633,8.5910589 14.6229718,9.00566795 13.7223182,9.00566795 C13.1218825,9.00566795 12.3444712,8.79786155 11.3900841,8.38224876 Z" id="Path-34" fill="#FFFFFF"></path>
                        <path d="M11.6295064,44.5042714 C10.7035003,45.601969 9.78898738,46.2643391 8.88596755,46.4913816 C7.5314378,46.8319452 9.12000451,48.0594801 11.6088867,47.5770056 C13.2681415,47.2553558 14.3548678,46.6228804 14.8690655,45.6795793 L13.4573056,43.8243932 L11.6295064,44.5042714 Z" id="Path-38" fill="#82643C"></path>
                        <path d="M13.9261569,44.6426073 C13.2469952,45.8810411 12.6923453,46.5969627 12.262207,46.790372 C11.6169997,47.080486 11.3330454,47.899704 11.9542518,48.2224024 C12.5754582,48.5451008 14.2266752,48.3358862 15.2342623,47.7843101 C16.2418495,47.232734 16.6245117,45.9956485 16.6245117,45.4200273 C16.6245117,44.8444061 15.8343975,45.2435095 15.2342623,45.2435095 C14.8341722,45.2435095 14.398137,45.0432087 13.9261569,44.6426073 Z" id="Path-39" fill="#82643C"></path>
                    </g>
                </g>
            </g>
        </g>
    </g>
</svg>