<?xml version="1.0" encoding="UTF-8"?>
<svg width="360px" height="214px" viewBox="0 0 360 214" version="1.1" xmlns="http://www.w3.org/2000/svg" xmlns:xlink="http://www.w3.org/1999/xlink">
    <!-- Generator: Sketch 49.3 (51167) - http://www.bohemiancoding.com/sketch -->
    <title>az-pt-ID card-3</title>
    <desc>Created with Sketch.</desc>
    <defs>
        <rect id="path-1" x="3.82608696" y="44.9565217" width="74.6086957" height="49.7391304" rx="3.82608696"></rect>
    </defs>
    <g id="我的账号" stroke="none" stroke-width="1" fill="none" fill-rule="evenodd">
        <g id="3-1-我的账号-实名认证--身份证" transform="translate(-780.000000, -1336.000000)">
            <g id="Group-14" transform="translate(361.000000, 144.000000)">
                <g id="Group-27" transform="translate(419.000000, 1152.000000)">
                    <g id="az-pt-ID-card-3" transform="translate(0.000000, 40.000000)">
                        <path d="M4,0 L356,-8.8817842e-16 C358.209139,-1.29399067e-15 360,1.790861 360,4 L360,210 C360,212.209139 358.209139,214 356,214 L4,214 C1.790861,214 2.705415e-16,212.209139 0,210 L0,4 C-2.705415e-16,1.790861 1.790861,4.05812251e-16 4,0 Z" id="Rectangle-6-Copy" fill="#FFFFFF"></path>
                        <g id="Group-4" transform="translate(70.000000, 21.000000)">
                            <g id="Group-16" transform="translate(47.826087, 0.000000)">
                                <polygon id="Rectangle-14" fill="#E0E0E0" points="58.9217391 124.442007 147.686957 124.442007 147.686957 171.679465 58.9217391 171.679465"></polygon>
                                <path d="M139.982311,81.4250167 C148.395329,76.8652158 152.278261,68.397014 152.278261,56.6718116 C152.278261,44.9466092 152.278261,29.313006 143.865242,19.542004 C135.452224,9.77100201 126.39205,4.55980094 124.450584,1.30280027 C124.450584,4.77693431 124.450584,7.16540147 124.450584,8.46820174 C118.841905,2.82273391 109.781731,0 97.2700621,0 C66.2066087,0 48.7334161,28.0102058 39.026087,28.0102058 C40.9675528,31.9186066 47.4391056,35.8270074 50.0277267,35.8270074 C48.7334161,37.1298076 47.0076687,38.4326079 44.8504845,39.7354082 C47.0076687,43.643809 50.2434451,45.5980094 54.5578137,45.5980094 C54.5578137,52.1120107 54.5578137,75.5624155 66.2066087,81.4250167 C74.6196273,81.4250167 127.039205,81.4250167 139.982311,81.4250167 Z" id="Path-8" fill="#CCCCCC"></path>
                                <path d="M88,104.469833 L118.608696,104.469833 L118.608696,127.573512 C118.608696,136.02587 111.756706,142.87786 103.304348,142.87786 L103.304348,142.87786 C94.8519899,142.87786 88,136.02587 88,127.573512 L88,104.469833 Z" id="Rectangle-13" fill="#EEEEEE"></path>
                                <path d="M88,104.469833 L118.608696,104.469833 L118.608696,113.746622 C118.608696,122.19898 111.756706,129.05097 103.304348,129.05097 L103.304348,129.05097 C94.8519899,129.05097 88,122.19898 88,113.746622 L88,104.469833 Z" id="Rectangle-13-Copy-2" fill="#E0E0E0"></path>
                                <path d="M138.504348,64.5254849 L147.773585,64.5254849 C152.797156,64.5254849 156.869565,68.5978941 156.869565,73.6214653 L156.869565,76.9379996 C156.869565,81.9615708 152.797156,86.0339799 147.773585,86.0339799 L138.504348,86.0339799 L138.504348,64.5254849 Z" id="Rectangle-9" fill="#E0E0E0"></path>
                                <path d="M49.7391304,64.5254849 L59.0083675,64.5254849 C64.0319387,64.5254849 68.1043478,68.5978941 68.1043478,73.6214653 L68.1043478,76.9379996 C68.1043478,81.9615708 64.0319387,86.0339799 59.0083675,86.0339799 L49.7391304,86.0339799 L49.7391304,64.5254849 Z" id="Rectangle-9-Copy" fill="#E0E0E0" transform="translate(58.921739, 75.279732) scale(-1, 1) translate(-58.921739, -75.279732) "></path>
                                <path d="M61.9826087,30.7264214 L144.626087,30.7264214 L144.626087,81.5839465 C144.626087,104.405313 126.125714,122.905686 103.304348,122.905686 L103.304348,122.905686 C80.4829815,122.905686 61.9826087,104.405313 61.9826087,81.5839465 L61.9826087,30.7264214 Z" id="Rectangle-8" fill="#EEEEEE"></path>
                                <path d="M57.3913043,44.9403076 C91.4499009,54.7535629 118.483912,52.6202465 138.493338,38.5403586 C138.493338,44.9403076 142.32493,55.820221 146.156522,58.3802007 C146.156522,51.76692 146.156522,41.5247795 146.156522,27.6537793 L57.3913043,27.6537793 L57.3913043,44.9403076 Z" id="Path-9" fill="#CCCCCC"></path>
                                <rect id="Rectangle-10" fill="#E0E0E0" x="98.7130435" y="72.2070903" width="9.1826087" height="15.3632107" rx="4.59130435"></rect>
                                <path d="M121.669565,67.5981271 C124.205273,67.5981271 126.26087,69.6537241 126.26087,72.1894314 L126.26087,75.2973913 C126.26087,77.8330987 124.205273,79.8886957 121.669565,79.8886957 C119.133858,79.8886957 117.078261,77.8330987 117.078261,75.2973913 L117.078261,72.1894314 C117.078261,69.6537241 119.133858,67.5981271 121.669565,67.5981271 Z M115.259653,62.269199 C114.275252,63.2291522 112.679223,63.2291522 111.694822,62.269199 C110.710422,61.3092459 110.710422,59.7528544 111.694822,58.7929013 C116.460297,54.1457776 126.878833,54.1457776 131.644308,58.7929013 C132.628709,59.7528544 132.628709,61.3092459 131.644308,62.269199 C130.659907,63.2291522 129.063878,63.2291522 128.079477,62.269199 C125.282804,59.5419816 118.056327,59.5419816 115.259653,62.269199 Z" id="Combined-Shape" fill="#CCCCCC"></path>
                                <path d="M84.9391304,67.5981271 C87.4748378,67.5981271 89.5304348,69.6537241 89.5304348,72.1894314 L89.5304348,75.2973913 C89.5304348,77.8330987 87.4748378,79.8886957 84.9391304,79.8886957 C82.4034231,79.8886957 80.3478261,77.8330987 80.3478261,75.2973913 L80.3478261,72.1894314 C80.3478261,69.6537241 82.4034231,67.5981271 84.9391304,67.5981271 Z M78.5292185,62.269199 C77.5448177,63.2291522 75.9487885,63.2291522 74.9643876,62.269199 C73.9799867,61.3092459 73.9799867,59.7528544 74.9643876,58.7929013 C79.7298627,54.1457776 90.1483982,54.1457776 94.9138733,58.7929013 C95.8982741,59.7528544 95.8982741,61.3092459 94.9138733,62.269199 C93.9294724,63.2291522 92.3334432,63.2291522 91.3490423,62.269199 C88.552369,59.5419816 81.3258918,59.5419816 78.5292185,62.269199 Z" id="Combined-Shape" fill="#CCCCCC"></path>
                                <path d="M88,96.7882274 L118.608696,96.7882274 C116.437866,104.98194 111.336417,109.078796 103.304348,109.078796 C95.2722788,109.078796 90.1708295,104.98194 88,96.7882274 Z" id="Path-13" fill="#CCCCCC"></path>
                                <path d="M147.686957,171.679465 L167.832965,171.679466 C169.946055,171.679466 171.659053,169.966468 171.659053,167.853378 C171.659053,167.678934 171.647123,167.504695 171.623346,167.331879 C167.835564,139.801362 159.856767,125.504738 147.686957,124.442007 C147.686957,143.995184 147.686957,159.741003 147.686957,171.679465 Z" id="Path-14" fill="#E0E0E0"></path>
                                <path d="M58.9217391,171.679465 C47.3797101,172.009097 38.7391304,169.942029 33,165.478261 C27.2608696,161.014493 16.4521739,149.663768 0.573913043,131.426087 C29.7478261,124.442007 46.1267528,125.559331 58.9217391,124.442007 L58.9217391,171.679465 Z" id="Path-14-Copy" fill="#E0E0E0"></path>
                            </g>
                            <g id="Group-25" transform="translate(0.000000, 71.739130)">
                                <polygon id="Path-5" fill="#E0E0E0" points="20.0869565 20.5652174 33 83.2173913 65.5217391 80.826087 46.8695652 15.7826087"></polygon>
                                <path d="M44.9565217,34.9130435 C45.2753623,43.2028986 46.0724638,47.826087 47.3478261,48.7826087 C49.2608696,50.2173913 54.0434783,49.7391304 54.0434783,42.5652174 C54.0434783,37.7826087 54.0434783,33.7971014 54.0434783,30.6086957 L44.9565217,34.9130435 Z" id="Path-19" fill="#E0E0E0"></path>
                                <g id="Rectangle-3" transform="translate(41.130435, 69.826087) rotate(-9.000000) translate(-41.130435, -69.826087) ">
                                    <use fill="#FFFFFF" fill-rule="evenodd" xlink:href="#path-1"></use>
                                    <rect stroke="#CCCCCC" stroke-width="1.91304348" x="4.7826087" y="45.9130435" width="72.6956522" height="47.826087" rx="3.82608696"></rect>
                                </g>
                                <text id="AZEX" font-family="Roboto-Medium, Roboto" font-size="9.56521739" font-weight="400" fill="#BBBBBB">
                                    <tspan x="22.9743546" y="62.9648983">AZEX</tspan>
                                </text>
                                <text id="2018" font-family="Roboto-Medium, Roboto" font-size="9.56521739" font-weight="400" fill="#BBBBBB">
                                    <tspan x="26.2540761" y="87.5282779">2018</tspan>
                                </text>
                                <text id="4" font-family="Roboto-Medium, Roboto" font-size="9.56521739" font-weight="400" fill="#BBBBBB">
                                    <tspan x="44.563519" y="71.9546628">4</tspan>
                                </text>
                                <text id="Feb" font-family="Roboto-Medium, Roboto" font-size="9.56521739" font-weight="400" fill="#BBBBBB">
                                    <tspan x="24.377123" y="75.2465881">Feb</tspan>
                                </text>
                                <path d="M24.8903212,44.2396729 C20.5859733,48.5440207 14.9220568,49.9900623 7.3715594,34.8890675 C5.45851592,31.0629805 -0.803296641,24.0122759 15.9358338,12.0557542 C32.6749642,0.09923242 47.1996439,2.28282628 51.0257308,7.06543497 C54.8518178,11.8480437 59.8033646,28.9353251 62.194669,37.0657599 C64.5859733,45.1961946 64.1077125,47.587499 60.2816255,48.5440207 C56.4555386,49.5005425 54.0642342,45.6744555 52.1511907,40.8918468 C50.8758284,37.703441 49.9193067,35.3121367 49.2816255,33.7179338 C46.0932197,39.1382236 42.1077125,40.7324265 37.3251038,38.5005425 C36.8468429,43.2831512 30.9276592,45.1684941 24.8903212,44.2396729 Z" id="Path-18" fill="#EEEEEE" transform="translate(34.143973, 25.964993) rotate(5.000000) translate(-34.143973, -25.964993) "></path>
                            </g>
                        </g>
                    </g>
                </g>
            </g>
        </g>
    </g>
</svg>