<?xml version="1.0" encoding="UTF-8"?>
<svg width="361px" height="480px" viewBox="0 0 361 480" version="1.1" xmlns="http://www.w3.org/2000/svg" xmlns:xlink="http://www.w3.org/1999/xlink">
    <!-- Generator: Sketch 49.3 (51167) - http://www.bohemiancoding.com/sketch -->
    <title>az-pt-passport-2</title>
    <desc>Created with Sketch.</desc>
    <defs></defs>
    <g id="我的账号" stroke="none" stroke-width="1" fill="none" fill-rule="evenodd">
        <g id="3-我的账号-实名认证-护照" transform="translate(-781.000000, -1337.000000)">
            <g id="Group-14" transform="translate(362.000000, 154.000000)">
                <g id="Group-8-Copy" transform="translate(420.000000, 1144.000000)">
                    <g id="az-pt-passport-2" transform="translate(0.000000, 39.000000)">
                        <rect id="Rectangle-5" fill="#FFFFFF" x="0" y="0" width="360" height="480" rx="4.52830189"></rect>
                        <g id="Group-27" transform="translate(0.000000, 26.000000)">
                            <rect id="Rectangle-2" fill="#EEEEEE" x="22.6415094" y="0.0377358491" width="149.433962" height="22.6415094" rx="1.13207547"></rect>
                            <rect id="Rectangle-2-Copy-4" fill="#EEEEEE" x="180" y="0.0377358491" width="9.05660377" height="22.6415094" rx="1.13207547"></rect>
                            <rect id="Rectangle-2-Copy-5" fill="#EEEEEE" x="190.188679" y="0.0377358491" width="1.13207547" height="22.6415094" rx="0.566037736"></rect>
                            <rect id="Rectangle-2-Copy-6" fill="#EEEEEE" x="195.849057" y="0.0377358491" width="4.52830189" height="22.6415094" rx="1.13207547"></rect>
                            <rect id="Rectangle-2-Copy-7" fill="#EEEEEE" x="204.90566" y="0.0377358491" width="2.26415094" height="22.6415094" rx="1.13207547"></rect>
                            <rect id="Rectangle-2-Copy-8" fill="#EEEEEE" x="209.433962" y="0.0377358491" width="7.9245283" height="22.6415094" rx="1.13207547"></rect>
                            <rect id="Rectangle-2-Copy-9" fill="#EEEEEE" x="223.018868" y="0.0377358491" width="1.13207547" height="22.6415094" rx="0.566037736"></rect>
                            <rect id="Rectangle-2-Copy-10" fill="#EEEEEE" x="225.283019" y="0.0377358491" width="3.39622642" height="22.6415094" rx="1.13207547"></rect>
                            <rect id="Rectangle-2-Copy-11" fill="#EEEEEE" x="233.207547" y="0.0377358491" width="5.66037736" height="22.6415094" rx="1.13207547"></rect>
                            <rect id="Rectangle-2-Copy-12" fill="#EEEEEE" x="242.264151" y="0.0377358491" width="2.26415094" height="22.6415094" rx="1.13207547"></rect>
                            <rect id="Rectangle-2-Copy-13" fill="#EEEEEE" x="249.056604" y="0.0377358491" width="5.66037736" height="22.6415094" rx="1.13207547"></rect>
                            <rect id="Rectangle-2-Copy-14" fill="#EEEEEE" x="258.113208" y="0.0377358491" width="2.26415094" height="22.6415094" rx="1.13207547"></rect>
                            <rect id="Rectangle-2-Copy-15" fill="#EEEEEE" x="263.773585" y="0.0377358491" width="6.79245283" height="22.6415094" rx="1.13207547"></rect>
                            <rect id="Rectangle-2-Copy-16" fill="#EEEEEE" x="272.830189" y="0.0377358491" width="2.26415094" height="22.6415094" rx="1.13207547"></rect>
                            <rect id="Rectangle-2-Copy-17" fill="#EEEEEE" x="283.018868" y="0.0377358491" width="1.13207547" height="22.6415094" rx="0.566037736"></rect>
                            <rect id="Rectangle-2-Copy-18" fill="#EEEEEE" x="285.283019" y="0.0377358491" width="4.52830189" height="22.6415094" rx="1.13207547"></rect>
                            <rect id="Rectangle-2-Copy-19" fill="#EEEEEE" x="292.075472" y="0.0377358491" width="2.26415094" height="22.6415094" rx="1.13207547"></rect>
                            <rect id="Rectangle-2-Copy-20" fill="#EEEEEE" x="300" y="0.0377358491" width="1.13207547" height="22.6415094" rx="0.566037736"></rect>
                            <rect id="Rectangle-2-Copy-21" fill="#EEEEEE" x="302.264151" y="0.0377358491" width="1.13207547" height="22.6415094" rx="0.566037736"></rect>
                            <rect id="Rectangle-2-Copy-24" fill="#EEEEEE" x="319.245283" y="0.0377358491" width="1.13207547" height="22.6415094" rx="0.566037736"></rect>
                            <rect id="Rectangle-2-Copy-23" fill="#EEEEEE" x="305.660377" y="0.0377358491" width="4.52830189" height="22.6415094" rx="1.13207547"></rect>
                            <rect id="Rectangle-2-Copy-22" fill="#EEEEEE" x="322.641509" y="0.0377358491" width="3.39622642" height="22.6415094" rx="1.13207547"></rect>
                            <path d="M0,215.132075 L355.471698,215.132075" id="Path-2" stroke="#D5D5D5" stroke-width="1.13207547" stroke-linecap="round" stroke-linejoin="round" stroke-dasharray="4.528301886792453"></path>
                            <g id="Group-16" transform="translate(20.377358, 274.000000)">
                                <path d="M14.7169811,39.6226415 L80.3773585,39.6226415 L80.3773585,80.3773585 C80.3773585,86.6296387 75.308884,91.6981132 69.0566038,91.6981132 L26.0377358,91.6981132 C19.7854557,91.6981132 14.7169811,86.6296387 14.7169811,80.3773585 L14.7169811,39.6226415 Z" id="Rectangle-4-Copy-2" fill="#CCCCCC"></path>
                                <path d="M84.3167579,105.283019 L86.6266384,105.283019 C90.0527646,105.283019 92.8301887,108.060443 92.8301887,111.486569 L92.8301887,135.849057 L78.1132075,135.849057 L78.1132075,111.486569 C78.1132075,108.060443 80.8906316,105.283019 84.3167579,105.283019 Z" id="Rectangle-17" fill="#EEEEEE"></path>
                                <path d="M8.46770126,105.283019 L10.7775818,105.283019 C14.203708,105.283019 16.9811321,108.060443 16.9811321,111.486569 L16.9811321,135.849057 L2.26415094,135.849057 L2.26415094,111.486569 C2.26415094,108.060443 5.04157502,105.283019 8.46770126,105.283019 Z" id="Rectangle-17-Copy" fill="#EEEEEE"></path>
                                <polygon id="Rectangle-14" fill="#E0E0E0" points="16.9811321 84.9056604 78.1132075 84.9056604 78.1132075 135.849057 16.9811321 135.849057"></polygon>
                                <path d="M72.0422782,55.4716981 C77.7452279,52.365283 80.3773585,46.5962264 80.3773585,38.6083019 C80.3773585,30.6203774 80.3773585,19.9698113 74.6744088,13.3132075 C68.9714592,6.65660377 62.8298211,3.10641509 61.5137558,0.88754717 C61.5137558,3.25433962 61.5137558,4.88150943 61.5137558,5.7690566 C57.7117894,1.92301887 51.5701513,0 43.0888415,0 C22.0317967,0 14.9494283,18.7086152 8.36910181,18.7086152 C6.68170124,23.244037 10.0565024,31.0641509 14.1354049,31.0641509 C14.1354049,35.5018868 14.1354049,51.4777358 22.0317967,55.4716981 C27.7347463,55.4716981 63.2685095,55.4716981 72.0422782,55.4716981 Z" id="Path-8" fill="#CCCCCC"></path>
                                <path d="M37.3584906,71.3207547 L57.7358491,71.3207547 L57.7358491,87.1698113 C57.7358491,92.7968635 53.174222,97.3584906 47.5471698,97.3584906 L47.5471698,97.3584906 C41.9201176,97.3584906 37.3584906,92.7968635 37.3584906,87.1698113 L37.3584906,71.3207547 Z" id="Rectangle-13" fill="#EEEEEE"></path>
                                <path d="M37.3584906,71.3207547 L57.7358491,71.3207547 L57.7358491,76.9811321 C57.7358491,82.6081842 53.174222,87.1698113 47.5471698,87.1698113 L47.5471698,87.1698113 C41.9201176,87.1698113 37.3584906,82.6081842 37.3584906,76.9811321 L37.3584906,71.3207547 Z" id="Rectangle-13-Copy" fill="#E0E0E0"></path>
                                <path d="M70.1886792,44.1509434 L76.9811321,44.1509434 C79.4820442,44.1509434 81.509434,46.1783332 81.509434,48.6792453 L81.509434,53.2075472 C81.509434,56.9589153 78.4683492,60 74.7169811,60 L70.1886792,60 L70.1886792,44.1509434 Z" id="Rectangle-9" fill="#E0E0E0"></path>
                                <path d="M13.5849057,44.1509434 L20.3773585,44.1509434 C22.8782706,44.1509434 24.9056604,46.1783332 24.9056604,48.6792453 L24.9056604,53.2075472 C24.9056604,56.9589153 21.8645757,60 18.1132075,60 L13.5849057,60 L13.5849057,44.1509434 Z" id="Rectangle-9-Copy" fill="#E0E0E0" transform="translate(19.245283, 52.075472) scale(-1, 1) translate(-19.245283, -52.075472) "></path>
                                <path d="M19.245283,20.3773585 L75.8490566,20.3773585 L75.8490566,54.3396226 C75.8490566,69.9703231 63.1778703,82.6415094 47.5471698,82.6415094 L47.5471698,82.6415094 C31.9164693,82.6415094 19.245283,69.9703231 19.245283,54.3396226 L19.245283,20.3773585 Z" id="Rectangle-8" fill="#EEEEEE"></path>
                                <path d="M19.245283,44.1509434 C20.9825561,41.4165671 21.8511926,37.2656237 21.8511926,31.6981132 C22.9191883,49.8113208 72.8109432,49.7966279 73.7130651,30 C73.7130651,34.244362 73.4057282,42.4531986 75.8490566,44.1509434 C75.8490566,39.7651026 75.8490566,31.4632158 75.8490566,19.245283 L19.245283,19.245283 L19.245283,44.1509434 Z" id="Path-9" fill="#CCCCCC"></path>
                                <path d="M47.5471698,53.2075472 L47.5471698,53.2075472 C48.7976258,53.2075472 49.8113208,54.2212421 49.8113208,55.4716981 L49.8113208,57.7358491 C49.8113208,58.9863051 48.7976258,60 47.5471698,60 L47.5471698,60 C46.2967138,60 45.2830189,58.9863051 45.2830189,57.7358491 L45.2830189,55.4716981 C45.2830189,54.2212421 46.2967138,53.2075472 47.5471698,53.2075472 Z" id="Rectangle-10" fill="#E0E0E0"></path>
                                <rect id="Combined-Shape" fill="#CCCCCC" x="57.7358491" y="46.4150943" width="6.79245283" height="9.05660377" rx="3.39622642"></rect>
                                <rect id="Combined-Shape" fill="#CCCCCC" x="30.5660377" y="46.4150943" width="6.79245283" height="9.05660377" rx="3.39622642"></rect>
                                <path d="M37.3584906,65.6603774 L57.7358491,65.6603774 C56.2906463,70.9433962 52.8944199,73.5849057 47.5471698,73.5849057 C42.1999197,73.5849057 38.8036933,70.9433962 37.3584906,65.6603774 Z" id="Path-13" fill="#CCCCCC"></path>
                                <path d="M78.1132075,116.603774 L95.0943396,116.603774 C92.6466089,96.2401372 86.9862315,85.6740995 78.1132075,84.9056604 C78.1132075,98.3533448 78.1132075,108.919383 78.1132075,116.603774 Z" id="Path-14" fill="#E0E0E0"></path>
                                <path d="M16.9811321,116.603774 L0,116.603774 C2.44773075,96.2401372 8.10810811,85.6740995 16.9811321,84.9056604 L16.9811321,116.603774 Z" id="Path-14-Copy" fill="#E0E0E0"></path>
                            </g>
                            <path d="M24.9056604,426.830189 L220.754717,426.830189 C222.005173,426.830189 223.018868,427.843884 223.018868,429.09434 C223.018868,430.344796 222.005173,431.358491 220.754717,431.358491 L24.9056604,431.358491 C23.6552043,431.358491 22.6415094,430.344796 22.6415094,429.09434 C22.6415094,427.843884 23.6552043,426.830189 24.9056604,426.830189 Z M232.87597,431.690068 C233.318073,432.132171 233.318073,432.848961 232.87597,433.291064 C232.433867,433.733167 231.717076,433.733167 231.274973,433.291064 L227.878747,429.894838 C227.436644,429.452735 227.436644,428.735944 227.878747,428.293841 L231.274973,424.897615 C231.717076,424.455512 232.433867,424.455512 232.87597,424.897615 C233.318073,425.339718 233.318073,426.056508 232.87597,426.498611 L230.280242,429.09434 L232.87597,431.690068 Z M243.064649,431.690068 C243.506752,432.132171 243.506752,432.848961 243.064649,433.291064 C242.622546,433.733167 241.905756,433.733167 241.463653,433.291064 L238.067426,429.894838 C237.625323,429.452735 237.625323,428.735944 238.067426,428.293841 L241.463653,424.897615 C241.905756,424.455512 242.622546,424.455512 243.064649,424.897615 C243.506752,425.339718 243.506752,426.056508 243.064649,426.498611 L240.468921,429.09434 L243.064649,431.690068 Z M253.253328,431.690068 C253.695431,432.132171 253.695431,432.848961 253.253328,433.291064 C252.811225,433.733167 252.094435,433.733167 251.652332,433.291064 L248.256106,429.894838 C247.814003,429.452735 247.814003,428.735944 248.256106,428.293841 L251.652332,424.897615 C252.094435,424.455512 252.811225,424.455512 253.253328,424.897615 C253.695431,425.339718 253.695431,426.056508 253.253328,426.498611 L250.6576,429.09434 L253.253328,431.690068 Z M263.442008,431.690068 C263.884111,432.132171 263.884111,432.848961 263.442008,433.291064 C262.999905,433.733167 262.283114,433.733167 261.841011,433.291064 L258.444785,429.894838 C258.002682,429.452735 258.002682,428.735944 258.444785,428.293841 L261.841011,424.897615 C262.283114,424.455512 262.999905,424.455512 263.442008,424.897615 C263.884111,425.339718 263.884111,426.056508 263.442008,426.498611 L260.84628,429.09434 L263.442008,431.690068 Z M273.630687,431.690068 C274.07279,432.132171 274.07279,432.848961 273.630687,433.291064 C273.188584,433.733167 272.471793,433.733167 272.02969,433.291064 L268.633464,429.894838 C268.191361,429.452735 268.191361,428.735944 268.633464,428.293841 L272.02969,424.897615 C272.471793,424.455512 273.188584,424.455512 273.630687,424.897615 C274.07279,425.339718 274.07279,426.056508 273.630687,426.498611 L271.034959,429.09434 L273.630687,431.690068 Z M283.819366,431.690068 C284.261469,432.132171 284.261469,432.848961 283.819366,433.291064 C283.377263,433.733167 282.660473,433.733167 282.21837,433.291064 L278.822143,429.894838 C278.38004,429.452735 278.38004,428.735944 278.822143,428.293841 L282.21837,424.897615 C282.660473,424.455512 283.377263,424.455512 283.819366,424.897615 C284.261469,425.339718 284.261469,426.056508 283.819366,426.498611 L281.223638,429.09434 L283.819366,431.690068 Z M294.008045,431.690068 C294.450148,432.132171 294.450148,432.848961 294.008045,433.291064 C293.565942,433.733167 292.849152,433.733167 292.407049,433.291064 L289.010823,429.894838 C288.56872,429.452735 288.56872,428.735944 289.010823,428.293841 L292.407049,424.897615 C292.849152,424.455512 293.565942,424.455512 294.008045,424.897615 C294.450148,425.339718 294.450148,426.056508 294.008045,426.498611 L291.412317,429.09434 L294.008045,431.690068 Z M304.196725,431.690068 C304.638828,432.132171 304.638828,432.848961 304.196725,433.291064 C303.754622,433.733167 303.037831,433.733167 302.595728,433.291064 L299.199502,429.894838 C298.757399,429.452735 298.757399,428.735944 299.199502,428.293841 L302.595728,424.897615 C303.037831,424.455512 303.754622,424.455512 304.196725,424.897615 C304.638828,425.339718 304.638828,426.056508 304.196725,426.498611 L301.600996,429.09434 L304.196725,431.690068 Z M314.385404,431.690068 C314.827507,432.132171 314.827507,432.848961 314.385404,433.291064 C313.943301,433.733167 313.22651,433.733167 312.784407,433.291064 L309.388181,429.894838 C308.946078,429.452735 308.946078,428.735944 309.388181,428.293841 L312.784407,424.897615 C313.22651,424.455512 313.943301,424.455512 314.385404,424.897615 C314.827507,425.339718 314.827507,426.056508 314.385404,426.498611 L311.789676,429.09434 L314.385404,431.690068 Z M324.574083,431.690068 C325.016186,432.132171 325.016186,432.848961 324.574083,433.291064 C324.13198,433.733167 323.41519,433.733167 322.973087,433.291064 L319.57686,429.894838 C319.134757,429.452735 319.134757,428.735944 319.57686,428.293841 L322.973087,424.897615 C323.41519,424.455512 324.13198,424.455512 324.574083,424.897615 C325.016186,425.339718 325.016186,426.056508 324.574083,426.498611 L321.978355,429.09434 L324.574083,431.690068 Z M334.762762,431.690068 C335.204865,432.132171 335.204865,432.848961 334.762762,433.291064 C334.320659,433.733167 333.603869,433.733167 333.161766,433.291064 L329.765539,429.894838 C329.323437,429.452735 329.323437,428.735944 329.765539,428.293841 L333.161766,424.897615 C333.603869,424.455512 334.320659,424.455512 334.762762,424.897615 C335.204865,425.339718 335.204865,426.056508 334.762762,426.498611 L332.167034,429.09434 L334.762762,431.690068 Z" id="Combined-Shape" fill="#EEEEEE"></path>
                            <path d="M144.90566,400.792453 L158.490566,400.792453 C160.991478,400.792453 163.018868,402.819843 163.018868,405.320755 C163.018868,407.821667 160.991478,409.849057 158.490566,409.849057 L144.90566,409.849057 C142.404748,409.849057 140.377358,407.821667 140.377358,405.320755 C140.377358,402.819843 142.404748,400.792453 144.90566,400.792453 Z M178.867925,400.792453 L192.45283,400.792453 C194.953742,400.792453 196.981132,402.819843 196.981132,405.320755 C196.981132,407.821667 194.953742,409.849057 192.45283,409.849057 L178.867925,409.849057 C176.367012,409.849057 174.339623,407.821667 174.339623,405.320755 C174.339623,402.819843 176.367012,400.792453 178.867925,400.792453 Z M212.830189,400.792453 L249.056604,400.792453 C251.557516,400.792453 253.584906,402.819843 253.584906,405.320755 C253.584906,407.821667 251.557516,409.849057 249.056604,409.849057 L212.830189,409.849057 C210.329277,409.849057 208.301887,407.821667 208.301887,405.320755 C208.301887,402.819843 210.329277,400.792453 212.830189,400.792453 Z M144.90566,378.150943 L158.490566,378.150943 C160.991478,378.150943 163.018868,380.178333 163.018868,382.679245 C163.018868,385.180157 160.991478,387.207547 158.490566,387.207547 L144.90566,387.207547 C142.404748,387.207547 140.377358,385.180157 140.377358,382.679245 C140.377358,380.178333 142.404748,378.150943 144.90566,378.150943 Z M178.867925,378.150943 L192.45283,378.150943 C194.953742,378.150943 196.981132,380.178333 196.981132,382.679245 C196.981132,385.180157 194.953742,387.207547 192.45283,387.207547 L178.867925,387.207547 C176.367012,387.207547 174.339623,385.180157 174.339623,382.679245 C174.339623,380.178333 176.367012,378.150943 178.867925,378.150943 Z M212.830189,378.150943 L249.056604,378.150943 C251.557516,378.150943 253.584906,380.178333 253.584906,382.679245 C253.584906,385.180157 251.557516,387.207547 249.056604,387.207547 L212.830189,387.207547 C210.329277,387.207547 208.301887,385.180157 208.301887,382.679245 C208.301887,380.178333 210.329277,378.150943 212.830189,378.150943 Z M144.90566,346.45283 L156.226415,346.45283 C158.727327,346.45283 160.754717,348.48022 160.754717,350.981132 C160.754717,353.482044 158.727327,355.509434 156.226415,355.509434 L144.90566,355.509434 C142.404748,355.509434 140.377358,353.482044 140.377358,350.981132 C140.377358,348.48022 142.404748,346.45283 144.90566,346.45283 Z M235.471698,346.45283 L328.301887,346.45283 C330.802799,346.45283 332.830189,348.48022 332.830189,350.981132 C332.830189,353.482044 330.802799,355.509434 328.301887,355.509434 L235.471698,355.509434 C232.970786,355.509434 230.943396,353.482044 230.943396,350.981132 C230.943396,348.48022 232.970786,346.45283 235.471698,346.45283 Z M144.90566,242.301887 L156.226415,242.301887 C158.727327,242.301887 160.754717,244.329277 160.754717,246.830189 C160.754717,249.331101 158.727327,251.358491 156.226415,251.358491 L144.90566,251.358491 C142.404748,251.358491 140.377358,249.331101 140.377358,246.830189 C140.377358,244.329277 142.404748,242.301887 144.90566,242.301887 Z M144.90566,323.811321 L237.735849,323.811321 C240.236761,323.811321 242.264151,325.838711 242.264151,328.339623 C242.264151,330.840535 240.236761,332.867925 237.735849,332.867925 L144.90566,332.867925 C142.404748,332.867925 140.377358,330.840535 140.377358,328.339623 C140.377358,325.838711 142.404748,323.811321 144.90566,323.811321 Z M144.90566,269.471698 L237.735849,269.471698 C240.236761,269.471698 242.264151,271.499088 242.264151,274 C242.264151,276.500912 240.236761,278.528302 237.735849,278.528302 L144.90566,278.528302 C142.404748,278.528302 140.377358,276.500912 140.377358,274 C140.377358,271.499088 142.404748,269.471698 144.90566,269.471698 Z M144.90566,296.641509 L192.45283,296.641509 C194.953742,296.641509 196.981132,298.668899 196.981132,301.169811 C196.981132,303.670723 194.953742,305.698113 192.45283,305.698113 L144.90566,305.698113 C142.404748,305.698113 140.377358,303.670723 140.377358,301.169811 C140.377358,298.668899 142.404748,296.641509 144.90566,296.641509 Z M218.490566,296.641509 L266.037736,296.641509 C268.538648,296.641509 270.566038,298.668899 270.566038,301.169811 C270.566038,303.670723 268.538648,305.698113 266.037736,305.698113 L218.490566,305.698113 C215.989654,305.698113 213.962264,303.670723 213.962264,301.169811 C213.962264,298.668899 215.989654,296.641509 218.490566,296.641509 Z M218.490566,242.301887 L266.037736,242.301887 C268.538648,242.301887 270.566038,244.329277 270.566038,246.830189 C270.566038,249.331101 268.538648,251.358491 266.037736,251.358491 L218.490566,251.358491 C215.989654,251.358491 213.962264,249.331101 213.962264,246.830189 C213.962264,244.329277 215.989654,242.301887 218.490566,242.301887 Z M296.235669,404.299606 C296.820728,408.746055 292.620361,410.4497 286.549154,408.852014 C283.217474,407.975256 281.54066,405.951515 282.279943,403.372238 C282.810356,401.521686 284.605862,399.72618 287.050308,398.310975 C287.189525,398.230375 287.329208,398.151709 287.469279,398.075004 C286.402176,397.260231 285.19237,396.444174 283.853282,395.652895 C278.560361,392.52526 277.752047,388.48369 280.394546,383.801593 C281.14111,382.478798 281.990785,381.30797 283.584801,379.292516 C287.233809,374.678755 288.03086,373.127178 287.246793,371.895072 C286.666204,370.982718 285.504327,371.196124 282.871372,373.528169 C279.704713,376.332925 275.489285,381.660114 270.281021,389.47251 C269.760799,390.252842 268.706493,390.463703 267.926161,389.943482 C267.14583,389.423261 266.934968,388.368955 267.455189,387.588623 C272.812963,379.551963 277.182441,374.030095 280.619555,370.985794 C284.590374,367.468783 288.051138,366.833132 290.112058,370.071721 C291.272161,371.894739 291.103999,373.92143 289.962926,376.142697 C289.226846,377.575584 288.613823,378.408738 286.248596,381.399303 C284.760487,383.280848 283.985619,384.348594 283.35223,385.470861 C281.574652,388.620454 281.969546,390.594928 285.581042,392.728993 C287.660495,393.957761 289.487387,395.258825 291.015863,396.579765 C295.343255,395.293492 299.421101,396.076114 300.994955,399.748439 C301.652728,401.283242 302.088138,401.372084 303.444167,400.534314 C304.055735,400.156481 304.724808,399.619107 305.594274,398.831082 C305.844942,398.603894 306.903745,397.620074 307.171091,397.379647 C307.803847,396.810602 308.270255,396.438274 308.725738,396.17161 C310.772539,394.973302 312.453011,396.268804 312.453011,398.719246 C312.453011,400.397101 312.716844,401.38485 312.942794,401.735846 C313.024566,401.649963 313.115272,401.522155 313.198323,401.356053 C313.988999,399.774701 316.033009,397.856864 318.015354,396.905339 C320.883957,395.528409 323.631779,396.145897 324.797721,399.255074 C325.372128,400.786827 327.338003,400.555547 331.843361,397.337434 C332.606514,396.792325 333.667071,396.969084 334.212181,397.732238 C334.75729,398.495391 334.580531,399.555948 333.817377,400.101057 C327.756698,404.430114 323.307478,404.953552 321.617735,400.447569 C321.254853,399.479884 320.740754,399.364356 319.485007,399.967115 C318.158349,400.603911 316.676127,401.994638 316.236,402.874892 C315.286429,404.774033 313.365435,405.814572 311.552082,404.907896 C310.146466,404.205088 309.347507,402.563103 309.122903,400.197132 C308.711893,400.575766 308.078222,401.16337 307.87502,401.347538 C306.864604,402.263312 306.055729,402.912968 305.229202,403.423605 C302.23473,405.273622 299.421939,404.6997 297.87333,401.086279 C297.329278,399.816824 295.80647,399.284275 293.859737,399.473402 C295.214195,401.146807 296.037164,402.790972 296.235669,404.299606 Z M288.75194,401.250158 C286.995324,402.267147 285.78186,403.480611 285.54471,404.307999 C285.416821,404.754191 285.721974,405.122479 287.413471,405.56761 C291.525803,406.649802 293.038667,406.036193 292.868466,404.742659 C292.716513,403.587819 291.799579,402.097099 290.231858,400.49227 C289.741795,400.711108 289.246577,400.96379 288.75194,401.250158 Z" id="Combined-Shape" fill="#EEEEEE"></path>
                        </g>
                    </g>
                </g>
            </g>
        </g>
    </g>
</svg>