<?xml version="1.0" encoding="UTF-8"?>
<svg width="360px" height="214px" viewBox="0 0 360 214" version="1.1" xmlns="http://www.w3.org/2000/svg" xmlns:xlink="http://www.w3.org/1999/xlink">
    <!-- Generator: Sketch 49.3 (51167) - http://www.bohemiancoding.com/sketch -->
    <title>az-pt-ID card-1</title>
    <desc>Created with Sketch.</desc>
    <defs></defs>
    <g id="我的账号" stroke="none" stroke-width="1" fill="none" fill-rule="evenodd">
        <g id="3-2实名认证--身份证验错" transform="translate(-780.000000, -778.000000)">
            <g id="Group-14" transform="translate(361.000000, 154.000000)">
                <g id="1" transform="translate(419.000000, 584.000000)">
                    <g id="az-pt-ID-card-1" transform="translate(0.000000, 40.000000)">
                        <path d="M4,0 L356,-8.8817842e-16 C358.209139,-1.29399067e-15 360,1.790861 360,4 L360,210 C360,212.209139 358.209139,214 356,214 L4,214 C1.790861,214 2.705415e-16,212.209139 0,210 L0,4 C-2.705415e-16,1.790861 1.790861,4.05812251e-16 4,0 Z" id="Rectangle-6-Copy" fill="#FFFFFF"></path>
                        <g id="Group-23" transform="translate(22.500000, 33.789474)">
                            <g id="Group-16" transform="translate(213.750000, 0.000000)">
                                <path d="M89.9363208,113.757895 L92.3136792,113.757895 C96.0064322,113.757895 99,116.751463 99,120.444215 L99,146.421053 L83.25,146.421053 L83.25,120.444215 C83.25,116.751463 86.2435678,113.757895 89.9363208,113.757895 Z" id="Rectangle-17" fill="#EEEEEE"></path>
                                <path d="M8.93632075,113.757895 L11.3136792,113.757895 C15.0064322,113.757895 18,116.751463 18,120.444215 L18,146.421053 L2.25,146.421053 L2.25,120.444215 C2.25,116.751463 5.24356777,113.757895 8.93632075,113.757895 Z" id="Rectangle-17-Copy" fill="#EEEEEE"></path>
                                <polygon id="Rectangle-14" fill="#E0E0E0" points="18 91.2315789 83.25 91.2315789 83.25 146.421053 18 146.421053"></polygon>
                                <path d="M77.5864286,59.6947368 C83.7707143,56.3518316 86.625,50.1435789 86.625,41.5475368 C86.625,32.9514947 86.625,21.4901053 80.4407143,14.3267368 C74.2564286,7.16336842 67.5964286,3.34290526 66.1692857,0.955115789 C66.1692857,3.50209123 66.1692857,5.25313684 66.1692857,6.20825263 C62.0464286,2.06941754 55.3864286,0 46.1892857,0 C23.355,0 10.5107143,20.5349895 3.375,20.5349895 C4.80214286,23.4003368 9.55928571,26.2656842 11.4621429,26.2656842 C10.5107143,27.2208 9.24214286,28.1759158 7.65642857,29.1310316 C9.24214286,31.9963789 11.6207143,33.4290526 14.7921429,33.4290526 C14.7921429,38.2046316 14.7921429,55.3967158 23.355,59.6947368 C29.5392857,59.6947368 68.0721429,59.6947368 77.5864286,59.6947368 Z" id="Path-8" fill="#CCCCCC"></path>
                                <path d="M39.375,76.5894737 L61.875,76.5894737 L61.875,93.4973684 C61.875,99.7105719 56.8382034,104.747368 50.625,104.747368 L50.625,104.747368 C44.4117966,104.747368 39.375,99.7105719 39.375,93.4973684 L39.375,76.5894737 Z" id="Rectangle-13" fill="#EEEEEE"></path>
                                <path d="M39.375,76.5894737 L61.875,76.5894737 L61.875,83.3605263 C61.875,89.5737298 56.8382034,94.6105263 50.625,94.6105263 L50.625,94.6105263 C44.4117966,94.6105263 39.375,89.5737298 39.375,83.3605263 L39.375,76.5894737 Z" id="Rectangle-13-Copy" fill="#E0E0E0"></path>
                                <path d="M76.5,47.3052632 L83.3136792,47.3052632 C87.0064322,47.3052632 90,50.2988309 90,53.9915839 L90,56.3873635 C90,60.0801164 87.0064322,63.0736842 83.3136792,63.0736842 L76.5,63.0736842 L76.5,47.3052632 Z" id="Rectangle-9" fill="#E0E0E0"></path>
                                <path d="M11.25,47.3052632 L18.0636792,47.3052632 C21.7564322,47.3052632 24.75,50.2988309 24.75,53.9915839 L24.75,56.3873635 C24.75,60.0801164 21.7564322,63.0736842 18.0636792,63.0736842 L11.25,63.0736842 L11.25,47.3052632 Z" id="Rectangle-9-Copy" fill="#E0E0E0" transform="translate(18.000000, 55.189474) scale(-1, 1) translate(-18.000000, -55.189474) "></path>
                                <path d="M20.25,22.5263158 L81,22.5263158 L81,59.7302632 C81,76.5059124 67.4006493,90.1052632 50.625,90.1052632 L50.625,90.1052632 C33.8493507,90.1052632 20.25,76.5059124 20.25,59.7302632 L20.25,22.5263158 Z" id="Rectangle-8" fill="#EEEEEE"></path>
                                <path d="M16.875,32.9468749 C41.9109712,40.1412202 61.7832734,38.5772321 76.4919065,28.2549105 C76.4919065,32.9468749 79.3084532,40.9232143 82.125,42.8 C82.125,37.9516368 82.125,30.4428649 82.125,20.2736842 L16.875,20.2736842 L16.875,32.9468749 Z" id="Path-9" fill="#CCCCCC"></path>
                                <rect id="Rectangle-10" fill="#E0E0E0" x="47.25" y="52.9368421" width="6.75" height="11.2631579" rx="3.375"></rect>
                                <path d="M64.125,49.5578947 C65.988961,49.5578947 67.5,51.0689337 67.5,52.9328947 L67.5,55.1934211 C67.5,57.0573821 65.988961,58.5684211 64.125,58.5684211 C62.261039,58.5684211 60.75,57.0573821 60.75,55.1934211 L60.75,52.9328947 C60.75,51.0689337 62.261039,49.5578947 64.125,49.5578947 Z M59.4131684,45.651123 C58.6895499,46.3548888 57.5163324,46.3548888 56.7927139,45.651123 C56.0690954,44.9473571 56.0690954,43.8063271 56.7927139,43.1025613 C60.2957442,39.6956375 67.9542558,39.6956375 71.4572861,43.1025613 C72.1809046,43.8063271 72.1809046,44.9473571 71.4572861,45.651123 C70.7336676,46.3548888 69.5604501,46.3548888 68.8368316,45.651123 C66.7810383,43.6517309 61.4689617,43.6517309 59.4131684,45.651123 Z" id="Combined-Shape" fill="#CCCCCC"></path>
                                <path d="M37.125,49.5578947 C38.988961,49.5578947 40.5,51.0689337 40.5,52.9328947 L40.5,55.1934211 C40.5,57.0573821 38.988961,58.5684211 37.125,58.5684211 C35.261039,58.5684211 33.75,57.0573821 33.75,55.1934211 L33.75,52.9328947 C33.75,51.0689337 35.261039,49.5578947 37.125,49.5578947 Z M32.4131684,45.651123 C31.6895499,46.3548888 30.5163324,46.3548888 29.7927139,45.651123 C29.0690954,44.9473571 29.0690954,43.8063271 29.7927139,43.1025613 C33.2957442,39.6956375 40.9542558,39.6956375 44.4572861,43.1025613 C45.1809046,43.8063271 45.1809046,44.9473571 44.4572861,45.651123 C43.7336676,46.3548888 42.5604501,46.3548888 41.8368316,45.651123 C39.7810383,43.6517309 34.4689617,43.6517309 32.4131684,45.651123 Z" id="Combined-Shape" fill="#CCCCCC"></path>
                                <path d="M39.375,70.9578947 L61.875,70.9578947 C60.2792553,76.9649123 56.5292553,79.9684211 50.625,79.9684211 C44.7207447,79.9684211 40.9707447,76.9649123 39.375,70.9578947 Z" id="Path-13" fill="#CCCCCC"></path>
                                <path d="M83.25,125.021053 L101.25,125.021053 C98.6554054,103.313876 92.6554054,92.0507177 83.25,91.2315789 C83.25,105.566507 83.25,116.829665 83.25,125.021053 Z" id="Path-14" fill="#E0E0E0"></path>
                                <path d="M18,125.021053 L0,125.021053 C2.59459459,103.313876 8.59459459,92.0507177 18,91.2315789 L18,125.021053 Z" id="Path-14-Copy" fill="#E0E0E0"></path>
                            </g>
                            <rect id="Rectangle-2" fill="#EEEEEE" x="0" y="11.2631579" width="148.5" height="13.5157895" rx="2.25"></rect>
                            <rect id="Rectangle-2-Copy" fill="#EEEEEE" x="0" y="41.6736842" width="101.25" height="13.5157895" rx="2.25"></rect>
                            <rect id="Rectangle-2-Copy-2" fill="#EEEEEE" x="0" y="72.0842105" width="101.25" height="13.5157895" rx="2.25"></rect>
                            <rect id="Rectangle-2-Copy-3" fill="#EEEEEE" x="0" y="132.905263" width="186.75" height="13.5157895" rx="2.25"></rect>
                        </g>
                    </g>
                </g>
            </g>
        </g>
    </g>
</svg>