<?xml version="1.0" encoding="UTF-8"?>
<svg width="360px" height="480px" viewBox="0 0 360 480" version="1.1" xmlns="http://www.w3.org/2000/svg" xmlns:xlink="http://www.w3.org/1999/xlink">
    <!-- Generator: Sketch 49.3 (51167) - http://www.bohemiancoding.com/sketch -->
    <title>az-pt-passport-1</title>
    <desc>Created with Sketch.</desc>
    <defs></defs>
    <g id="我的账号" stroke="none" stroke-width="1" fill="none" fill-rule="evenodd">
        <g id="3-我的账号-实名认证-护照" transform="translate(-780.000000, -778.000000)">
            <g id="Group-14" transform="translate(362.000000, 154.000000)">
                <g id="Group-8" transform="translate(418.000000, 584.000000)">
                    <g id="az-pt-passport-1" transform="translate(0.000000, 40.000000)">
                        <rect id="Rectangle-5" fill="#FFFFFF" x="0" y="0" width="360" height="480" rx="4.52830189"></rect>
                        <g id="Group-13" transform="translate(84.000000, 33.000000)">
                            <text id="COUNTRY" font-family="OpenSans-Extrabold, Open Sans" font-size="27.1698113" font-weight="600" fill="#E0E0E0">
                                <tspan x="29.3446344" y="29.9622642">COUNTRY</tspan>
                            </text>
                            <text id="PASSPORT" font-family="OpenSans-Extrabold, Open Sans" font-size="27.1698113" font-weight="600" fill="#E0E0E0">
                                <tspan x="25.9196639" y="404.679245">PASSPORT</tspan>
                            </text>
                            <rect id="Rectangle-2" fill="#EEEEEE" x="11.0943396" y="347.377358" width="169.811321" height="11.3207547" rx="2.54716981"></rect>
                            <g id="Group-23" transform="translate(0.905660, 117.566038)">
                                <g id="Group-26-Copy" transform="translate(0.000000, 3.396226)" fill="#E0E0E0" fill-rule="nonzero">
                                    <path d="M56.6037736,106.415094 C84.1138064,106.415094 106.415094,84.1138064 106.415094,56.6037736 C106.415094,29.0937408 84.1138064,6.79245283 56.6037736,6.79245283 C29.0937408,6.79245283 6.79245283,29.0937408 6.79245283,56.6037736 C6.79245283,84.1138064 29.0937408,106.415094 56.6037736,106.415094 Z M56.6037736,113.207547 C25.3423727,113.207547 0,87.8651745 0,56.6037736 C0,25.3423727 25.3423727,0 56.6037736,0 C87.8651745,0 113.207547,25.3423727 113.207547,56.6037736 C113.207547,87.8651745 87.8651745,113.207547 56.6037736,113.207547 Z" id="Oval-3"></path>
                                    <path d="M56.6037736,21.509434 C67.6243595,21.509434 78.0501103,19.8267608 86.6246801,16.8481396 C78.1096265,10.4040923 67.6525775,6.79245283 56.6037736,6.79245283 C45.5550062,6.79245283 35.0979898,10.4040684 26.5829573,16.8480714 C35.1595819,19.8274811 45.5849433,21.509434 56.6037736,21.509434 Z M56.6037736,0 C73.367921,0 88.4299237,7.28774792 98.7944624,18.8679245 C98.2390972,19.178176 97.6702447,19.4822654 97.088366,19.7799623 C86.8108957,25.0380516 72.4696442,28.3018868 56.6037736,28.3018868 C40.8388559,28.3018868 26.579217,25.0794543 16.3158575,19.8800897 C15.6653338,19.5505378 15.0308647,19.2130437 14.4130848,18.8679245 C24.7776235,7.28774792 39.8396262,0 56.6037736,0 Z" id="Combined-Shape"></path>
                                    <path d="M56.6037736,106.415094 C67.2032228,106.415094 78.1132075,84.5951249 78.1132075,56.6037736 C78.1132075,28.6124223 67.2032228,6.79245283 56.6037736,6.79245283 C46.0043243,6.79245283 35.0943396,28.6124223 35.0943396,56.6037736 C35.0943396,84.5951249 46.0043243,106.415094 56.6037736,106.415094 Z M56.6037736,113.207547 C40.9730731,113.207547 28.3018868,87.8651745 28.3018868,56.6037736 C28.3018868,25.3423727 40.9730731,0 56.6037736,0 C72.2344741,0 84.9056604,25.3423727 84.9056604,56.6037736 C84.9056604,87.8651745 72.2344741,113.207547 56.6037736,113.207547 Z" id="Oval-3-Copy"></path>
                                    <path d="M56.6037736,106.415094 C69.3452713,106.415094 81.2832776,101.605441 90.3444481,93.251723 C81.1967903,89.4088784 69.3063794,87.1698113 56.6037736,87.1698113 C43.9056257,87.1698113 32.0161398,89.4068148 22.863313,93.2519202 C31.9244575,101.605517 43.8623761,106.415094 56.6037736,106.415094 Z M13.8807936,90.1129436 C24.2583583,84.1480631 39.5503707,80.3773585 56.6037736,80.3773585 C73.8364866,80.3773585 89.2705737,84.227775 99.6524685,90.301825 C100.22172,90.6348724 100.775783,90.974605 101.314119,91.3207547 C90.9577049,104.63907 74.7813767,113.207547 56.6037736,113.207547 C38.4261704,113.207547 22.2498423,104.63907 11.8934278,91.3207547 C12.5339239,90.9089168 13.1966803,90.5061625 13.8807936,90.1129436 Z" id="Combined-Shape"></path>
                                    <polygon id="Path-10" points="1.13207547 60 1.13207547 53.2075472 110.949232 53.2075472 110.949232 60"></polygon>
                                </g>
                                <path d="M134.716981,120 C101.579896,120 74.7169811,93.137085 74.7169811,60 C74.7169811,26.862915 101.579896,0 134.716981,0 C167.854066,0 167.854066,120 134.716981,120 Z" id="Path" fill="#FFFFFF"></path>
                                <g id="Group-26" transform="translate(78.113208, 3.396226)" fill="#E0E0E0" fill-rule="nonzero">
                                    <path d="M56.6037736,106.415094 C84.1138064,106.415094 106.415094,84.1138064 106.415094,56.6037736 C106.415094,29.0937408 84.1138064,6.79245283 56.6037736,6.79245283 C29.0937408,6.79245283 6.79245283,29.0937408 6.79245283,56.6037736 C6.79245283,84.1138064 29.0937408,106.415094 56.6037736,106.415094 Z M56.6037736,113.207547 C25.3423727,113.207547 0,87.8651745 0,56.6037736 C0,25.3423727 25.3423727,0 56.6037736,0 C87.8651745,0 113.207547,25.3423727 113.207547,56.6037736 C113.207547,87.8651745 87.8651745,113.207547 56.6037736,113.207547 Z" id="Oval-3"></path>
                                    <path d="M56.6037736,21.509434 C67.6243595,21.509434 78.0501103,19.8267608 86.6246801,16.8481396 C78.1096265,10.4040923 67.6525775,6.79245283 56.6037736,6.79245283 C45.5550062,6.79245283 35.0979898,10.4040684 26.5829573,16.8480714 C35.1595819,19.8274811 45.5849433,21.509434 56.6037736,21.509434 Z M56.6037736,0 C73.367921,0 88.4299237,7.28774792 98.7944624,18.8679245 C98.2390972,19.178176 97.6702447,19.4822654 97.088366,19.7799623 C86.8108957,25.0380516 72.4696442,28.3018868 56.6037736,28.3018868 C40.8388559,28.3018868 26.579217,25.0794543 16.3158575,19.8800897 C15.6653338,19.5505378 15.0308647,19.2130437 14.4130848,18.8679245 C24.7776235,7.28774792 39.8396262,0 56.6037736,0 Z" id="Combined-Shape"></path>
                                    <path d="M56.6037736,106.415094 C67.2032228,106.415094 78.1132075,84.5951249 78.1132075,56.6037736 C78.1132075,28.6124223 67.2032228,6.79245283 56.6037736,6.79245283 C46.0043243,6.79245283 35.0943396,28.6124223 35.0943396,56.6037736 C35.0943396,84.5951249 46.0043243,106.415094 56.6037736,106.415094 Z M56.6037736,113.207547 C40.9730731,113.207547 28.3018868,87.8651745 28.3018868,56.6037736 C28.3018868,25.3423727 40.9730731,0 56.6037736,0 C72.2344741,0 84.9056604,25.3423727 84.9056604,56.6037736 C84.9056604,87.8651745 72.2344741,113.207547 56.6037736,113.207547 Z" id="Oval-3-Copy"></path>
                                    <path d="M56.6037736,106.415094 C69.3452713,106.415094 81.2832776,101.605441 90.3444481,93.251723 C81.1967903,89.4088784 69.3063794,87.1698113 56.6037736,87.1698113 C43.9056257,87.1698113 32.0161398,89.4068148 22.863313,93.2519202 C31.9244575,101.605517 43.8623761,106.415094 56.6037736,106.415094 Z M13.8807936,90.1129436 C24.2583583,84.1480631 39.5503707,80.3773585 56.6037736,80.3773585 C73.8364866,80.3773585 89.2705737,84.227775 99.6524685,90.301825 C100.22172,90.6348724 100.775783,90.974605 101.314119,91.3207547 C90.9577049,104.63907 74.7813767,113.207547 56.6037736,113.207547 C38.4261704,113.207547 22.2498423,104.63907 11.8934278,91.3207547 C12.5339239,90.9089168 13.1966803,90.5061625 13.8807936,90.1129436 Z" id="Combined-Shape"></path>
                                    <polygon id="Path-10" points="1.13207547 60 1.13207547 53.2075472 110.949232 53.2075472 110.949232 60"></polygon>
                                </g>
                            </g>
                        </g>
                    </g>
                </g>
            </g>
        </g>
    </g>
</svg>