<?xml version="1.0" encoding="UTF-8"?>
<svg width="360px" height="214px" viewBox="0 0 360 214" version="1.1" xmlns="http://www.w3.org/2000/svg" xmlns:xlink="http://www.w3.org/1999/xlink">
    <!-- Generator: Sketch 49.3 (51167) - http://www.bohemiancoding.com/sketch -->
    <title>az-pt-ID card-2</title>
    <desc>Created with Sketch.</desc>
    <defs></defs>
    <g id="我的账号" stroke="none" stroke-width="1" fill="none" fill-rule="evenodd">
        <g id="3-2实名认证--身份证验错" transform="translate(-780.000000, -1072.000000)">
            <g id="Group-14" transform="translate(361.000000, 154.000000)">
                <g id="2" transform="translate(419.000000, 878.000000)">
                    <g id="az-pt-ID-card-2" transform="translate(0.000000, 40.000000)">
                        <path d="M4,0 L356,-8.8817842e-16 C358.209139,-1.29399067e-15 360,1.790861 360,4 L360,210 C360,212.209139 358.209139,214 356,214 L4,214 C1.790861,214 2.705415e-16,212.209139 0,210 L0,4 C-2.705415e-16,1.790861 1.790861,4.05812251e-16 4,0 Z" id="Rectangle-6-Copy" fill="#FFFFFF"></path>
                        <g id="Group-13" transform="translate(1.000000, 24.000000)">
                            <polygon id="Rectangle-6-Copy-5" fill="#FAFAFA" points="0 97 358 97 358 189 0 189"></polygon>
                            <path d="M25.2641509,144.264151 L170.735849,144.264151 C171.986305,144.264151 173,145.277846 173,146.528302 C173,147.778758 171.986305,148.792453 170.735849,148.792453 L25.2641509,148.792453 C24.0136949,148.792453 23,147.778758 23,146.528302 C23,145.277846 24.0136949,144.264151 25.2641509,144.264151 Z M233.3288,149.12403 C233.770903,149.566133 233.770903,150.282924 233.3288,150.725027 C232.886697,151.16713 232.169907,151.16713 231.727804,150.725027 L228.331577,147.3288 C227.889474,146.886697 227.889474,146.169907 228.331577,145.727804 L231.727804,142.331577 C232.169907,141.889474 232.886697,141.889474 233.3288,142.331577 C233.770903,142.77368 233.770903,143.490471 233.3288,143.932574 L230.733072,146.528302 L233.3288,149.12403 Z M203.668423,149.12403 C204.110526,149.566133 204.110526,150.282924 203.668423,150.725027 C203.22632,151.16713 202.509529,151.16713 202.067426,150.725027 L198.6712,147.3288 C198.229097,146.886697 198.229097,146.169907 198.6712,145.727804 L202.067426,142.331577 C202.509529,141.889474 203.22632,141.889474 203.668423,142.331577 C204.110526,142.77368 204.110526,143.490471 203.668423,143.932574 L201.072695,146.528302 L203.668423,149.12403 Z M243.3288,149.12403 C243.770903,149.566133 243.770903,150.282924 243.3288,150.725027 C242.886697,151.16713 242.169907,151.16713 241.727804,150.725027 L238.331577,147.3288 C237.889474,146.886697 237.889474,146.169907 238.331577,145.727804 L241.727804,142.331577 C242.169907,141.889474 242.886697,141.889474 243.3288,142.331577 C243.770903,142.77368 243.770903,143.490471 243.3288,143.932574 L240.733072,146.528302 L243.3288,149.12403 Z M213.668423,149.12403 C214.110526,149.566133 214.110526,150.282924 213.668423,150.725027 C213.22632,151.16713 212.509529,151.16713 212.067426,150.725027 L208.6712,147.3288 C208.229097,146.886697 208.229097,146.169907 208.6712,145.727804 L212.067426,142.331577 C212.509529,141.889474 213.22632,141.889474 213.668423,142.331577 C214.110526,142.77368 214.110526,143.490471 213.668423,143.932574 L211.072695,146.528302 L213.668423,149.12403 Z M253.3288,149.12403 C253.770903,149.566133 253.770903,150.282924 253.3288,150.725027 C252.886697,151.16713 252.169907,151.16713 251.727804,150.725027 L248.331577,147.3288 C247.889474,146.886697 247.889474,146.169907 248.331577,145.727804 L251.727804,142.331577 C252.169907,141.889474 252.886697,141.889474 253.3288,142.331577 C253.770903,142.77368 253.770903,143.490471 253.3288,143.932574 L250.733072,146.528302 L253.3288,149.12403 Z M223.668423,149.12403 C224.110526,149.566133 224.110526,150.282924 223.668423,150.725027 C223.22632,151.16713 222.509529,151.16713 222.067426,150.725027 L218.6712,147.3288 C218.229097,146.886697 218.229097,146.169907 218.6712,145.727804 L222.067426,142.331577 C222.509529,141.889474 223.22632,141.889474 223.668423,142.331577 C224.110526,142.77368 224.110526,143.490471 223.668423,143.932574 L221.072695,146.528302 L223.668423,149.12403 Z M184.668423,149.12403 C185.110526,149.566133 185.110526,150.282924 184.668423,150.725027 C184.22632,151.16713 183.509529,151.16713 183.067426,150.725027 L179.6712,147.3288 C179.229097,146.886697 179.229097,146.169907 179.6712,145.727804 L183.067426,142.331577 C183.509529,141.889474 184.22632,141.889474 184.668423,142.331577 C185.110526,142.77368 185.110526,143.490471 184.668423,143.932574 L182.072695,146.528302 L184.668423,149.12403 Z M194.668423,149.12403 C195.110526,149.566133 195.110526,150.282924 194.668423,150.725027 C194.22632,151.16713 193.509529,151.16713 193.067426,150.725027 L189.6712,147.3288 C189.229097,146.886697 189.229097,146.169907 189.6712,145.727804 L193.067426,142.331577 C193.509529,141.889474 194.22632,141.889474 194.668423,142.331577 C195.110526,142.77368 195.110526,143.490471 194.668423,143.932574 L192.072695,146.528302 L194.668423,149.12403 Z M263.800498,149.12403 C264.242601,149.566133 264.242601,150.282924 263.800498,150.725027 C263.358395,151.16713 262.641605,151.16713 262.199502,150.725027 L258.803275,147.3288 C258.361172,146.886697 258.361172,146.169907 258.803275,145.727804 L262.199502,142.331577 C262.641605,141.889474 263.358395,141.889474 263.800498,142.331577 C264.242601,142.77368 264.242601,143.490471 263.800498,143.932574 L261.20477,146.528302 L263.800498,149.12403 Z M273.989177,149.12403 C274.43128,149.566133 274.43128,150.282924 273.989177,150.725027 C273.547075,151.16713 272.830284,151.16713 272.388181,150.725027 L268.991955,147.3288 C268.549852,146.886697 268.549852,146.169907 268.991955,145.727804 L272.388181,142.331577 C272.830284,141.889474 273.547075,141.889474 273.989177,142.331577 C274.43128,142.77368 274.43128,143.490471 273.989177,143.932574 L271.393449,146.528302 L273.989177,149.12403 Z M284.177857,149.12403 C284.61996,149.566133 284.61996,150.282924 284.177857,150.725027 C283.735754,151.16713 283.018963,151.16713 282.57686,150.725027 L279.180634,147.3288 C278.738531,146.886697 278.738531,146.169907 279.180634,145.727804 L282.57686,142.331577 C283.018963,141.889474 283.735754,141.889474 284.177857,142.331577 C284.61996,142.77368 284.61996,143.490471 284.177857,143.932574 L281.582129,146.528302 L284.177857,149.12403 Z M294.366536,149.12403 C294.808639,149.566133 294.808639,150.282924 294.366536,150.725027 C293.924433,151.16713 293.207642,151.16713 292.765539,150.725027 L289.369313,147.3288 C288.92721,146.886697 288.92721,146.169907 289.369313,145.727804 L292.765539,142.331577 C293.207642,141.889474 293.924433,141.889474 294.366536,142.331577 C294.808639,142.77368 294.808639,143.490471 294.366536,143.932574 L291.770808,146.528302 L294.366536,149.12403 Z M304.555215,149.12403 C304.997318,149.566133 304.997318,150.282924 304.555215,150.725027 C304.113112,151.16713 303.396322,151.16713 302.954219,150.725027 L299.557992,147.3288 C299.115889,146.886697 299.115889,146.169907 299.557992,145.727804 L302.954219,142.331577 C303.396322,141.889474 304.113112,141.889474 304.555215,142.331577 C304.997318,142.77368 304.997318,143.490471 304.555215,143.932574 L301.959487,146.528302 L304.555215,149.12403 Z M314.743894,149.12403 C315.185997,149.566133 315.185997,150.282924 314.743894,150.725027 C314.301791,151.16713 313.585001,151.16713 313.142898,150.725027 L309.746672,147.3288 C309.304569,146.886697 309.304569,146.169907 309.746672,145.727804 L313.142898,142.331577 C313.585001,141.889474 314.301791,141.889474 314.743894,142.331577 C315.185997,142.77368 315.185997,143.490471 314.743894,143.932574 L312.148166,146.528302 L314.743894,149.12403 Z M324.932574,149.12403 C325.374677,149.566133 325.374677,150.282924 324.932574,150.725027 C324.490471,151.16713 323.77368,151.16713 323.331577,150.725027 L319.935351,147.3288 C319.493248,146.886697 319.493248,146.169907 319.935351,145.727804 L323.331577,142.331577 C323.77368,141.889474 324.490471,141.889474 324.932574,142.331577 C325.374677,142.77368 325.374677,143.490471 324.932574,143.932574 L322.336846,146.528302 L324.932574,149.12403 Z M335.121253,149.12403 C335.563356,149.566133 335.563356,150.282924 335.121253,150.725027 C334.67915,151.16713 333.962359,151.16713 333.520256,150.725027 L330.12403,147.3288 C329.681927,146.886697 329.681927,146.169907 330.12403,145.727804 L333.520256,142.331577 C333.962359,141.889474 334.67915,141.889474 335.121253,142.331577 C335.563356,142.77368 335.563356,143.490471 335.121253,143.932574 L332.525525,146.528302 L335.121253,149.12403 Z" id="Combined-Shape" fill="#EEEEEE"></path>
                            <path d="M25.2641509,166.264151 L221.113208,166.264151 C222.363664,166.264151 223.377358,167.277846 223.377358,168.528302 C223.377358,169.778758 222.363664,170.792453 221.113208,170.792453 L25.2641509,170.792453 C24.0136949,170.792453 23,169.778758 23,168.528302 C23,167.277846 24.0136949,166.264151 25.2641509,166.264151 Z M233.234461,171.12403 C233.676563,171.566133 233.676563,172.282924 233.234461,172.725027 C232.792358,173.16713 232.075567,173.16713 231.633464,172.725027 L228.237238,169.3288 C227.795135,168.886697 227.795135,168.169907 228.237238,167.727804 L231.633464,164.331577 C232.075567,163.889474 232.792358,163.889474 233.234461,164.331577 C233.676563,164.77368 233.676563,165.490471 233.234461,165.932574 L230.638732,168.528302 L233.234461,171.12403 Z M243.42314,171.12403 C243.865243,171.566133 243.865243,172.282924 243.42314,172.725027 C242.981037,173.16713 242.264246,173.16713 241.822143,172.725027 L238.425917,169.3288 C237.983814,168.886697 237.983814,168.169907 238.425917,167.727804 L241.822143,164.331577 C242.264246,163.889474 242.981037,163.889474 243.42314,164.331577 C243.865243,164.77368 243.865243,165.490471 243.42314,165.932574 L240.827412,168.528302 L243.42314,171.12403 Z M253.611819,171.12403 C254.053922,171.566133 254.053922,172.282924 253.611819,172.725027 C253.169716,173.16713 252.452925,173.16713 252.010823,172.725027 L248.614596,169.3288 C248.172493,168.886697 248.172493,168.169907 248.614596,167.727804 L252.010823,164.331577 C252.452925,163.889474 253.169716,163.889474 253.611819,164.331577 C254.053922,164.77368 254.053922,165.490471 253.611819,165.932574 L251.016091,168.528302 L253.611819,171.12403 Z M263.800498,171.12403 C264.242601,171.566133 264.242601,172.282924 263.800498,172.725027 C263.358395,173.16713 262.641605,173.16713 262.199502,172.725027 L258.803275,169.3288 C258.361172,168.886697 258.361172,168.169907 258.803275,167.727804 L262.199502,164.331577 C262.641605,163.889474 263.358395,163.889474 263.800498,164.331577 C264.242601,164.77368 264.242601,165.490471 263.800498,165.932574 L261.20477,168.528302 L263.800498,171.12403 Z M273.989177,171.12403 C274.43128,171.566133 274.43128,172.282924 273.989177,172.725027 C273.547075,173.16713 272.830284,173.16713 272.388181,172.725027 L268.991955,169.3288 C268.549852,168.886697 268.549852,168.169907 268.991955,167.727804 L272.388181,164.331577 C272.830284,163.889474 273.547075,163.889474 273.989177,164.331577 C274.43128,164.77368 274.43128,165.490471 273.989177,165.932574 L271.393449,168.528302 L273.989177,171.12403 Z M284.177857,171.12403 C284.61996,171.566133 284.61996,172.282924 284.177857,172.725027 C283.735754,173.16713 283.018963,173.16713 282.57686,172.725027 L279.180634,169.3288 C278.738531,168.886697 278.738531,168.169907 279.180634,167.727804 L282.57686,164.331577 C283.018963,163.889474 283.735754,163.889474 284.177857,164.331577 C284.61996,164.77368 284.61996,165.490471 284.177857,165.932574 L281.582129,168.528302 L284.177857,171.12403 Z M294.366536,171.12403 C294.808639,171.566133 294.808639,172.282924 294.366536,172.725027 C293.924433,173.16713 293.207642,173.16713 292.765539,172.725027 L289.369313,169.3288 C288.92721,168.886697 288.92721,168.169907 289.369313,167.727804 L292.765539,164.331577 C293.207642,163.889474 293.924433,163.889474 294.366536,164.331577 C294.808639,164.77368 294.808639,165.490471 294.366536,165.932574 L291.770808,168.528302 L294.366536,171.12403 Z M304.555215,171.12403 C304.997318,171.566133 304.997318,172.282924 304.555215,172.725027 C304.113112,173.16713 303.396322,173.16713 302.954219,172.725027 L299.557992,169.3288 C299.115889,168.886697 299.115889,168.169907 299.557992,167.727804 L302.954219,164.331577 C303.396322,163.889474 304.113112,163.889474 304.555215,164.331577 C304.997318,164.77368 304.997318,165.490471 304.555215,165.932574 L301.959487,168.528302 L304.555215,171.12403 Z M314.743894,171.12403 C315.185997,171.566133 315.185997,172.282924 314.743894,172.725027 C314.301791,173.16713 313.585001,173.16713 313.142898,172.725027 L309.746672,169.3288 C309.304569,168.886697 309.304569,168.169907 309.746672,167.727804 L313.142898,164.331577 C313.585001,163.889474 314.301791,163.889474 314.743894,164.331577 C315.185997,164.77368 315.185997,165.490471 314.743894,165.932574 L312.148166,168.528302 L314.743894,171.12403 Z M324.932574,171.12403 C325.374677,171.566133 325.374677,172.282924 324.932574,172.725027 C324.490471,173.16713 323.77368,173.16713 323.331577,172.725027 L319.935351,169.3288 C319.493248,168.886697 319.493248,168.169907 319.935351,167.727804 L323.331577,164.331577 C323.77368,163.889474 324.490471,163.889474 324.932574,164.331577 C325.374677,164.77368 325.374677,165.490471 324.932574,165.932574 L322.336846,168.528302 L324.932574,171.12403 Z M335.121253,171.12403 C335.563356,171.566133 335.563356,172.282924 335.121253,172.725027 C334.67915,173.16713 333.962359,173.16713 333.520256,172.725027 L330.12403,169.3288 C329.681927,168.886697 329.681927,168.169907 330.12403,167.727804 L333.520256,164.331577 C333.962359,163.889474 334.67915,163.889474 335.121253,164.331577 C335.563356,164.77368 335.563356,165.490471 335.121253,165.932574 L332.525525,168.528302 L335.121253,171.12403 Z" id="Combined-Shape-Copy-2" fill="#EEEEEE"></path>
                            <g id="Group-20" transform="translate(22.500000, 0.789474)" fill="#EEEEEE">
                                <rect id="Rectangle-2" x="0" y="-1.13686838e-13" width="148.5" height="6" rx="2.25"></rect>
                                <rect id="Rectangle-2-Copy" x="0" y="31" width="101.25" height="6" rx="2.25"></rect>
                                <rect id="Rectangle-2-Copy-2" x="0" y="51" width="101.25" height="6" rx="2.25"></rect>
                                <rect id="Rectangle-2-Copy-5" x="243" y="0" width="70" height="70" rx="2.25"></rect>
                                <rect id="Rectangle-2-Copy-4" x="0" y="70" width="101.25" height="6" rx="2.25"></rect>
                            </g>
                        </g>
                    </g>
                </g>
            </g>
        </g>
    </g>
</svg>